<?xml version="1.0" encoding="UTF-8"?>
<svg version="1.1" viewBox="0 0 962 265" xmlns="http://www.w3.org/2000/svg">
<title>Servebolt_logo</title>
<desc>Created with Sketch.</desc>
<defs>
<linearGradient id="b" x1="50.007%" x2="50.007%" y2="99.999%">
<stop stop-color="#FE6F5E" offset="0"/>
<stop stop-color="#FE7C4F" offset=".13"/>
<stop stop-color="#FF9534" offset=".44"/>
<stop stop-color="#FFA523" offset=".7"/>
<stop stop-color="#FFAA1D" offset=".9"/>
</linearGradient>
<linearGradient id="a" x1="49.995%" x2="49.995%" y1="100%" y2="-.0011816%">
<stop stop-color="#FE6F5E" offset="0"/>
<stop stop-color="#FE7C4F" offset=".13"/>
<stop stop-color="#FF9534" offset=".44"/>
<stop stop-color="#FFA523" offset=".7"/>
<stop stop-color="#FFAA1D" offset=".9"/>
</linearGradient>
</defs>
<g fill="none" fill-rule="evenodd">
<g transform="translate(-1)" fill-rule="nonzero">
<path id="Path" d="m239 116.86c29 8.33 45.64 18.49 45.64 40.48 0 23-17 40.31-47.8 40.31-24.66 0-43.31-12-51-30.65l23.32-12c5 11.32 15.32 18.15 28.48 18.15 11.66 0 19.82-5.83 19.82-13.82 0-7.66-5.66-11.16-24.65-16.82-14-4.17-24.82-8.83-31.82-15.83-6.4924-6.346-10.106-15.072-10-24.15 0-23.32 20.82-39.31 45.47-39.31 21.82 0 38.31 10.33 45.81 28.15l-22.27 12.17c-4.33-10.49-13.49-16-24.65-16-10.83 0-17.33 5.66-17.33 13.32-0.02 8.14 6.98 12.01 20.98 16z" fill="#252B30"/>
<path id="Shape" d="m319.48 158.34c1.66 11.16 11.16 17.49 22 17.49 7.49 0 15.82-4 19.82-10.66l18.82 12.32c-7.5 13.5-20.32 20.16-38.31 20.16-27 0-48.81-19-48.81-46.64 0-25.65 21.49-46.47 47.14-46.47 26.49 0 44.31 18.15 44.31 44.47 0.057896 3.1137-0.052265 6.2282-0.33 9.33h-64.64zm39-17.16c-0.49-6.49-6-15.49-19-15.49-11.66 0-18.33 9.66-19.33 15.49h38.33z" fill="#252B30"/>
<path id="Path" d="m450.9 132c-2.035-0.34422-4.0961-0.51151-6.16-0.5-17.82 0-24.15 11.83-24.15 26.49v37.64h-26v-88.93h25.81v13.66h0.17c3.5-7.66 12.66-14.66 25.15-14.66 1.7414 0.003689 3.4754 0.22883 5.16 0.67l0.02 25.63z" fill="#252B30"/>
<polygon id="Path" points="503.29 166 525.29 106.7 552.77 106.7 516.29 195.7 489.8 195.7 453.8 106.75 481.3 106.75" fill="#252B30"/>
<path id="Shape" d="m577.92 158.34c1.66 11.16 11.16 17.49 22 17.49 7.5 0 15.83-4 19.83-10.66l18.82 12.32c-7.5 13.5-20.32 20.16-38.31 20.16-27 0-48.81-19-48.81-46.64 0-25.65 21.49-46.47 47.14-46.47 26.49 0 44.31 18.15 44.31 44.47 0.057896 3.1137-0.052265 6.2282-0.33 9.33h-64.65zm39-17.16c-0.51-6.49-6-15.49-19-15.49-11.66 0-18.33 9.66-19.33 15.49h38.33z" fill="#252B30"/>
<path id="d" d="m679.2 117.36c8.8-11.36 21.65-12.36 26.98-12.36 26.15 0 42.31 23.48 42.31 46 0 23.15-17.16 46.3-43 46.3-5.83 0-18.49-1.16-27-12.32h-0.33v10.66h-25.28v-135.58h26v57.3h0.32zm21 56.47c12.16 0 22-9.33 22-22.82 0-13.33-9.83-22.49-22.15-22.49-12 0-21.82 9.16-21.82 22.49-0.03 13.49 9.77 22.82 21.95 22.82h0.02z" fill="#252B30"/>
<path d="m805.13 104.71c26.81 0 48.3 19.65 48.3 46.13 0 26.82-21.82 46.81-48.64 46.81-27 0-48.47-19.49-48.47-46.31 0-26.48 21.82-46.63 48.81-46.63zm-0.13 69.12c12.16 0 21.82-9.33 21.82-22.82 0-13.33-9.83-22.65-22-22.65s-21.82 9.32-21.82 22.64c0 13.5 9.8 22.83 22 22.83z" fill="#252B30"/>
<polygon id="Path" points="862.76 195.65 862.76 59.9 888.91 59.9 888.91 195.65" fill="#252B30"/>
<path id="Path" d="m961.71 195.15c-3.9446 1.1727-8.0453 1.7359-12.16 1.67-23.66 0-35.32-13.16-35.32-33.48v-34.15h-16v-22.49h16.33v-27.81h25.65v27.81h22v22.49h-22v31c0 10.49 5.66 14.16 15.49 14.16 2.0175-0.01971 4.0278-0.2442 6-0.67l0.01 21.47z" fill="#252B30"/>
<path id="c" d="m133 91.56c20.736 26.087 18.606 63.579-4.95 87.15l-77.44 77.45c-11.349 11.349-29.751 11.349-41.1 0-11.349-11.349-11.349-29.751 0-41.1l123.49-123.5z" fill="url(#b)"/>
<path d="m153.86 8.51c5.4507 5.4499 8.513 12.842 8.513 20.55s-3.0622 15.1-8.513 20.55l-123.5 123.5c-20.722-26.1-18.571-63.592 5-87.15l77.41-77.45c11.348-11.344 29.742-11.344 41.09 0z" fill="url(#a)"/>
</g>
</g>
</svg>
