<svg viewBox="0 0 962 265" xmlns="http://www.w3.org/2000/svg"><defs><linearGradient id="a" x1="50.007%" x2="50.007%" y2="99.999%"><stop stop-color="#FE6F5E" offset="0"/><stop stop-color="#FE7C4F" offset=".13"/><stop stop-color="#FF9534" offset=".44"/><stop stop-color="#FFA523" offset=".7"/><stop stop-color="#FFAA1D" offset=".9"/></linearGradient><linearGradient id="b" x1="49.995%" x2="49.995%" y1="100%" y2="-.001%"><stop stop-color="#FE6F5E" offset="0"/><stop stop-color="#FE7C4F" offset=".13"/><stop stop-color="#FF9534" offset=".44"/><stop stop-color="#FFA523" offset=".7"/><stop stop-color="#FFAA1D" offset=".9"/></linearGradient></defs><g fill="none"><path d="M238 116.86c29 8.33 45.64 18.49 45.64 40.48 0 23-17 40.31-47.8 40.31-24.66 0-43.31-12-51-30.65l23.32-12c5 11.32 15.32 18.15 28.48 18.15 11.66 0 19.82-5.83 19.82-13.82 0-7.66-5.66-11.16-24.65-16.82-14-4.17-24.82-8.83-31.82-15.83a33.228 33.228 0 0 1-10-24.15c0-23.32 20.82-39.31 45.47-39.31 21.82 0 38.31 10.33 45.81 28.15L259 103.54c-4.33-10.49-13.49-16-24.65-16-10.83 0-17.33 5.66-17.33 13.32-.02 8.14 6.98 12.01 20.98 16zm80.48 41.48c1.66 11.16 11.16 17.49 22 17.49 7.49 0 15.82-4 19.82-10.66l18.82 12.32c-7.5 13.5-20.32 20.16-38.31 20.16-27 0-48.81-19-48.81-46.64 0-25.65 21.49-46.47 47.14-46.47 26.49 0 44.31 18.15 44.31 44.47a86.57 86.57 0 0 1-.33 9.33h-64.64zm39-17.16c-.49-6.49-6-15.49-19-15.49-11.66 0-18.33 9.66-19.33 15.49h38.33zM449.9 132a35.74 35.74 0 0 0-6.16-.5c-17.82 0-24.15 11.83-24.15 26.49v37.64h-26V106.7h25.81v13.66h.17c3.5-7.66 12.66-14.66 25.15-14.66a20.54 20.54 0 0 1 5.16.67l.02 25.63zm52.39 34l22-59.3h27.48l-36.48 89H488.8l-36-88.95h27.5zm74.63-7.66c1.66 11.16 11.16 17.49 22 17.49 7.5 0 15.83-4 19.83-10.66l18.82 12.32c-7.5 13.5-20.32 20.16-38.31 20.16-27 0-48.81-19-48.81-46.64 0-25.65 21.49-46.47 47.14-46.47 26.49 0 44.31 18.15 44.31 44.47a86.57 86.57 0 0 1-.33 9.33h-64.65zm39-17.16c-.51-6.49-6-15.49-19-15.49-11.66 0-18.33 9.66-19.33 15.49h38.33zm62.28-23.82C687 106 699.85 105 705.18 105c26.15 0 42.31 23.48 42.31 46 0 23.15-17.16 46.3-43 46.3-5.83 0-18.49-1.16-27-12.32h-.33v10.66h-25.28V60.06h26v57.3h.32zm21 56.47c12.16 0 22-9.33 22-22.82 0-13.33-9.83-22.49-22.15-22.49-12 0-21.82 9.16-21.82 22.49-.03 13.49 9.77 22.82 21.95 22.82h.02zm104.93-69.12c26.81 0 48.3 19.65 48.3 46.13 0 26.82-21.82 46.81-48.64 46.81-27 0-48.47-19.49-48.47-46.31 0-26.48 21.82-46.63 48.81-46.63zm-.13 69.12c12.16 0 21.82-9.33 21.82-22.82 0-13.33-9.83-22.65-22-22.65S782 137.68 782 151c0 13.5 9.8 22.83 22 22.83zm57.76 21.82V59.9h26.15v135.75zm98.95-.5a40.402 40.402 0 0 1-12.16 1.67c-23.66 0-35.32-13.16-35.32-33.48v-34.15h-16V106.7h16.33V78.89h25.65v27.81h22v22.49h-22v31c0 10.49 5.66 14.16 15.49 14.16a29.81 29.81 0 0 0 6-.67l.01 21.47z" fill="#252B30"/><path d="M133 91.56c20.736 26.087 18.606 63.579-4.95 87.15l-77.44 77.45c-11.349 11.349-29.751 11.349-41.1 0s-11.349-29.751 0-41.1L133 91.56z" fill="url(#a)" transform="translate(-1)"/><path d="M153.86 8.51a29.06 29.06 0 0 1 0 41.1l-123.5 123.5c-20.722-26.1-18.571-63.592 5-87.15l77.41-77.45c11.348-11.344 29.742-11.344 41.09 0z" fill="url(#b)" transform="translate(-1)"/></g></svg>