<svg xmlns="http://www.w3.org/2000/svg" xmlns:xlink="http://www.w3.org/1999/xlink" viewBox="0 0 700.76 219.35"><defs><linearGradient id="linear-gradient" x1="14.15" y1="94.33" x2="138.14" y2="-9.71" gradientUnits="userSpaceOnUse"><stop offset="0.1" stop-color="#ffaa1d"/><stop offset="0.3" stop-color="#ffa523"/><stop offset="0.56" stop-color="#ff9534"/><stop offset="0.87" stop-color="#fe7c4f"/><stop offset="1" stop-color="#fe6f5e"/></linearGradient><linearGradient id="linear-gradient-2" x1="119.65" y1="193.19" x2="236.44" y2="95.19" xlink:href="#linear-gradient"/><linearGradient id="linear-gradient-3" x1="27.41" y1="178.75" x2="196.5" y2="36.87" xlink:href="#linear-gradient"/></defs><g id="Layer_2" data-name="Layer 2"><g id="Layer_1-2" data-name="Layer 1"><path d="M150.45,5,78,77.47a55.09,55.09,0,0,1-78,0L48,29.52A100.65,100.65,0,0,1,150.45,5Z" fill="url(#linear-gradient)"/><path d="M214.37,68.89a100.67,100.67,0,0,1-24.54,102.52l-47.94,47.94a55.05,55.05,0,0,1,0-78Z" fill="url(#linear-gradient-2)"/><path d="M189.83,29.53a99.8,99.8,0,0,1,16.78,22.21L78.34,180h0L51.21,207.12A100.71,100.71,0,0,1,75.75,104.6l48-47.95h0l43.91-43.91A100,100,0,0,1,189.83,29.53Z" fill="url(#linear-gradient-3)"/><path d="M297.63,46.25h13.65l21,54.81H320.59L316.46,90H292.17l-4.06,11.06H276.69Zm15,33.25-8.26-22.26L296.09,79.5Z" fill="#252b30"/><path d="M333.25,82.44c0-11.06,9-19.6,20.17-19.6,8.05,0,15.19,4,17.64,11.55l-9.59,4c-1.26-2.87-3.36-5.53-8.05-5.53s-9,3.5-9,9.45c0,5.53,3.57,9.52,9,9.52a8.44,8.44,0,0,0,8.26-5.53l9.66,4c-3,7.91-9.94,11.62-18,11.62C341.59,101.9,333.25,93.57,333.25,82.44Z" fill="#252b30"/><path d="M374.9,82.44c0-11.06,9-19.6,20.17-19.6,8.05,0,15.19,4,17.64,11.55l-9.59,4c-1.26-2.87-3.36-5.53-8.05-5.53s-9,3.5-9,9.45c0,5.53,3.57,9.52,9,9.52a8.44,8.44,0,0,0,8.26-5.53l9.66,4c-3,7.91-9.94,11.62-18,11.62C383.23,101.9,374.9,93.57,374.9,82.44Z" fill="#252b30"/><path d="M427.61,85.38c.7,4.69,4.69,7.35,9.25,7.35a10,10,0,0,0,8.33-4.48l7.91,5.18c-3.15,5.67-8.54,8.47-16.1,8.47-11.35,0-20.52-8-20.52-19.6A19.78,19.78,0,0,1,436.3,62.77c11.13,0,18.62,7.63,18.62,18.69a36,36,0,0,1-.14,3.92ZM444,78.17c-.21-2.73-2.52-6.51-8-6.51a8.42,8.42,0,0,0-8.12,6.51Z" fill="#252b30"/><path d="M461.28,101.06V44h11v57.05Z" fill="#252b30"/><path d="M489.77,85.38c.7,4.69,4.69,7.35,9.24,7.35a10,10,0,0,0,8.34-4.48l7.91,5.18c-3.15,5.67-8.54,8.47-16.11,8.47-11.34,0-20.51-8-20.51-19.6a19.78,19.78,0,0,1,19.81-19.53c11.14,0,18.63,7.63,18.63,18.69a36,36,0,0,1-.14,3.92Zm16.39-7.21c-.21-2.73-2.53-6.51-8-6.51a8.42,8.42,0,0,0-8.12,6.51Z" fill="#252b30"/><path d="M547.11,74.32a15.13,15.13,0,0,0-2.6-.21c-7.49,0-10.15,5-10.15,11.13v15.82H523.44V63.68h10.85v5.74h.07a11.44,11.44,0,0,1,10.57-6.16,8.77,8.77,0,0,1,2.18.28Z" fill="#252b30"/><path d="M548.85,90.63v-.14c0-9.24,9.1-11.48,16.66-11.48h3.71a2.6,2.6,0,0,0,2.94-2.73c0-2.38-1.89-4.62-6-4.62a8.83,8.83,0,0,0-8.33,5l-8.33-5c3-5.53,8.68-8.89,17.15-8.89,9.52,0,16.25,5,16.25,15v23.17H572.79V96.44l-.14-.07c-2.8,4-7.14,5.39-11.2,5.39C554.73,101.76,548.85,97.56,548.85,90.63Zm23.24-4.06v-.84h-6.58c-2.94,0-5.67,1.33-5.67,4.27,0,2.66,2.17,3.78,4.76,3.78C569.43,93.78,572.09,90.49,572.09,86.57Z" fill="#252b30"/><path d="M613.88,100.85a16.92,16.92,0,0,1-5.11.7c-9.94,0-14.84-5.53-14.84-14.07V73.13h-6.72V63.68h6.86V52h10.78V63.68h9.24v9.45h-9.24v13c0,4.41,2.38,5.95,6.51,5.95a12.48,12.48,0,0,0,2.52-.28Z" fill="#252b30"/><path d="M629.21,85.38c.7,4.69,4.69,7.35,9.24,7.35a10,10,0,0,0,8.33-4.48l7.92,5.18c-3.15,5.67-8.55,8.47-16.11,8.47-11.34,0-20.51-8-20.51-19.6a19.78,19.78,0,0,1,19.81-19.53c11.14,0,18.63,7.63,18.63,18.69a36,36,0,0,1-.14,3.92Zm16.38-7.21c-.21-2.73-2.52-6.51-8-6.51a8.42,8.42,0,0,0-8.12,6.51Z" fill="#252b30"/><path d="M690.05,96.3c-3.51,5.11-9.11,5.46-11.63,5.46-10.85,0-17.78-9.38-17.78-19.46,0-9.45,7.21-19.32,17.92-19.32a14.48,14.48,0,0,1,11.2,5h.14V44.08h10.86v57H690.18V96.3Zm-9.11-23.45a9.52,9.52,0,1,0,9.24,9.45A9.11,9.11,0,0,0,680.94,72.85Z" fill="#252b30"/><path d="M298.73,172.06h-16.6V117.25h16.81c19.11,0,30.94,10.08,30.94,27.3C329.88,160.86,318.12,172.06,298.73,172.06Zm.49-44.1h-5.74v33.39h5.6c11.34,0,19.18-6,19.18-16.8S310,128,299.22,128Z" fill="#252b30"/><path d="M354.87,133.84c11.27,0,20.3,8.26,20.3,19.39S366,172.9,354.73,172.9s-20.38-8.19-20.38-19.46S343.52,133.84,354.87,133.84Zm-.07,29c5.11,0,9.17-3.92,9.17-9.59a9.22,9.22,0,1,0-9.17,9.59Z" fill="#252b30"/><path d="M416.05,151.2v20.86H405.2V151.34c0-4.06-1.61-7.28-6.09-7.28s-6.66,3-6.66,7.28v20.72H381.53V134.68h10.71v4.9h.14c2.17-3.78,6.66-5.74,10.93-5.74,4.48,0,8.75,1.82,10.92,5.95,3.5-3.92,7-5.95,12.39-5.95,9.17,0,13.16,6.37,13.16,14.91v23.31H428.86V151.2c0-4.06-1.61-7.14-6.09-7.14S416.05,146.93,416.05,151.2Z" fill="#252b30"/><path d="M446,161.63v-.14c0-9.24,9.1-11.48,16.66-11.48h3.72a2.6,2.6,0,0,0,2.94-2.73c0-2.38-1.9-4.62-6-4.62a8.83,8.83,0,0,0-8.33,5l-8.33-5c3-5.53,8.68-8.89,17.15-8.89,9.53,0,16.25,5,16.25,15v23.17H470v-4.62l-.14-.07a13.23,13.23,0,0,1-11.21,5.39C451.88,172.76,446,168.56,446,161.63Zm23.25-4.06v-.84h-6.59c-2.94,0-5.67,1.33-5.67,4.27,0,2.66,2.17,3.78,4.76,3.78C466.59,164.78,469.25,161.49,469.25,157.57Z" fill="#252b30"/><path d="M493.74,114.87a6.76,6.76,0,1,1-6.72,6.79A6.77,6.77,0,0,1,493.74,114.87Zm5.6,19.81h-11v37.38h11Z" fill="#252b30"/><path d="M532.17,151.34c0-4.2-2-7.28-6.51-7.28s-6.72,3.43-6.72,7.28v20.72H508V134.68h10.85v4.9h.07c2.87-5,9.1-5.6,10.57-5.6C539,134,543,141.12,543,148.82v23.24H532.17Z" fill="#252b30"/><path d="M564.58,172.9c-8.75,0-13.58-3.43-16.31-8.61l8.05-4.76c1.33,2.66,4.27,4.55,8.4,4.55,2.8,0,4.55-1.33,4.55-2.73s-.77-2.52-5.95-3.64C556.39,156.17,550,153,550,145.6c0-7.14,6.79-11.83,14.35-11.83,7.14,0,12.11,3.15,14.42,7.56L570.88,146c-1.26-2.17-3.36-3.57-6.79-3.57-2.31,0-3.92,1.26-3.92,2.73s1.19,2.66,4.9,3.43c9,1.89,14.42,5.39,14.42,12.18C579.49,167.79,574,172.9,564.58,172.9Z" fill="#252b30"/></g></g></svg>