<?xml version="1.0" standalone="no"?><!-- Generator: Gravit.io --><svg xmlns="http://www.w3.org/2000/svg" xmlns:xlink="http://www.w3.org/1999/xlink" style="isolation:isolate" viewBox="0 0 25.001 25" width="25.001" height="25"><defs><clipPath id="_clipPath_Ngc6508D9tzrP6PoX11yZ6WAegu73Rku"><rect width="25.001" height="25"/></clipPath></defs><g clip-path="url(#_clipPath_Ngc6508D9tzrP6PoX11yZ6WAegu73Rku)"><path d=" M 4.829 0.001 C 4.414 0 4.017 0.165 3.723 0.458 L 0.458 3.723 C 0.165 4.016 0 4.414 0 4.828 L 0 20.134 C 0 20.549 0.165 20.946 0.458 21.239 L 3.762 24.543 C 4.055 24.836 4.453 25.001 4.867 25 L 20.197 25 C 20.61 25.001 21.007 24.838 21.3 24.546 L 22.942 22.913 C 22.944 22.91 22.946 22.908 22.947 22.905 L 24.547 21.299 C 24.838 21.006 25.001 20.609 25.001 20.196 L 25.001 4.834 C 25.001 4.419 24.836 4.021 24.543 3.727 L 22.904 2.093 L 21.277 0.459 C 20.983 0.165 20.585 0 20.169 0 L 4.829 0 L 4.829 0.001 Z  M 16.668 4.168 L 20.834 4.168 L 20.834 8.335 L 16.668 8.335 L 16.668 12.501 L 20.834 12.501 L 20.834 16.668 L 16.668 16.668 L 16.668 20.835 L 12.501 20.835 L 12.501 16.668 L 16.668 16.668 L 16.668 12.501 L 12.501 12.501 L 12.501 8.335 L 16.668 8.335 L 16.668 4.168 Z " fill="rgb(0,0,0)"/></g></svg>