<?xml version="1.0" encoding="utf-8"?>
<!-- Generator: Adobe Illustrator 24.0.3, SVG Export Plug-In . SVG Version: 6.00 Build 0)  -->
<svg version="1.1" class="servebolt-icon" id="servebolt-svg-icon" xmlns="http://www.w3.org/2000/svg" xmlns:xlink="http://www.w3.org/1999/xlink" x="0px" y="0px"
	 viewBox="0 0 161.4 264.7" style="enable-background:new 0 0 161.4 264.7;" xml:space="preserve">
<style type="text/css">
	.st0{fill:url(#c_1_);}
	.st1{fill:url(#SVGID_1_);}
</style>
<linearGradient id="c_1_" gradientUnits="userSpaceOnUse" x1="-62.6353" y1="412.326" x2="-62.6353" y2="411.326" gradientTransform="matrix(146.2422 0 0 -173.1118 9233.042 71470.0469)">
	<stop  offset="0" style="stop-color:#FE6F5E"/>
	<stop  offset="0.13" style="stop-color:#FE7C4F"/>
	<stop  offset="0.44" style="stop-color:#FF9534"/>
	<stop  offset="0.7" style="stop-color:#FFA523"/>
	<stop  offset="0.9" style="stop-color:#FFAA1D"/>
</linearGradient>
<path id="c" class="st0" d="M132,91.6c20.7,26.1,18.6,63.6-5,87.1l-77.4,77.4c-11.3,11.3-29.8,11.3-41.1,0
	c-11.3-11.3-11.3-29.8,0-41.1L132,91.6L132,91.6z"/>
<linearGradient id="SVGID_1_" gradientUnits="userSpaceOnUse" x1="-62.6352" y1="411.326" x2="-62.6352" y2="412.326" gradientTransform="matrix(146.231 0 0 -173.108 9247.4717 71376.9375)">
	<stop  offset="0" style="stop-color:#FE6F5E"/>
	<stop  offset="0.13" style="stop-color:#FE7C4F"/>
	<stop  offset="0.44" style="stop-color:#FF9534"/>
	<stop  offset="0.7" style="stop-color:#FFA523"/>
	<stop  offset="0.9" style="stop-color:#FFAA1D"/>
</linearGradient>
<path class="st1" d="M152.9,8.5c5.5,5.4,8.5,12.8,8.5,20.5s-3.1,15.1-8.5,20.6L29.4,173.1C8.6,147,10.8,109.5,34.4,86l77.4-77.4
	C123.1-2.8,141.5-2.8,152.9,8.5z"/>
</svg>
