<svg xmlns="http://www.w3.org/2000/svg" xmlns:xlink="http://www.w3.org/1999/xlink" version="1.1" x="0px" y="0px" style="enable-background:new 0 0 1011 300;" xml:space="preserve" viewBox="83 75 853 150.2" height="30" width="170">
<switch>
	<g>
        <path id="Path_8317" d="M315.6,168c0.3,5.7,3,11,7.4,14.7c4.5,3.7,10.3,5.5,17.5,5.5c6.3,0,11.4-1.4,15.2-4.1     c3.8-2.5,6-6.8,5.8-11.3c0.2-3.1-1-6-3.2-8.2c-2.5-2.2-5.4-3.8-8.6-4.6c-5-1.4-10.2-2.5-15.3-3.4c-5.9-1-11.6-2.5-17.2-4.6     c-4.6-1.8-8.6-4.8-11.6-8.8c-3-3.9-4.5-9.1-4.5-15.5c-0.1-5.6,1.5-11.1,4.6-15.8c3.2-4.7,7.7-8.5,13-10.8     c12.4-5.2,26.5-5.1,38.8,0.3c5.5,2.5,10.2,6.4,13.7,11.3c3.4,4.9,5.2,10.6,5.4,16.5h-16.7c-0.4-5-3-9.7-6.9-12.8     c-4-3.2-9.1-4.9-15.3-4.9c-6,0-10.8,1.3-14.4,3.9c-3.5,2.5-5.6,6.6-5.4,11c-0.1,3,1,5.9,3.2,8c2.4,2.1,5.3,3.6,8.5,4.4     c3.5,1,8.6,2.1,15.2,3.2c5.9,1,11.7,2.5,17.2,4.7c4.6,1.8,8.7,4.8,11.8,8.7c3,3.8,4.6,8.9,4.6,15.2c0.1,5.8-1.6,11.5-4.9,16.3     c-3.4,4.9-8.1,8.8-13.5,11.3c-6.2,2.8-12.9,4.2-19.7,4c-7.4,0.2-14.8-1.4-21.5-4.4c-5.9-2.7-10.9-6.9-14.5-12.3     c-3.5-5.4-5.4-11.6-5.4-18L315.6,168z"/>
        <path id="Path_8318" d="M393.2,143.7c2.9-5.7,7.4-10.4,13-13.5c5.8-3.3,12.4-4.9,19.1-4.8     c6.7-0.1,13.3,1.4,19.2,4.4c5.5,2.9,10,7.2,13.1,12.5c3.3,5.8,5,12.3,4.9,19c0,2-0.2,4-0.4,6h-56.8v0.9     c0.4,6.6,2.5,11.8,6.2,15.6c3.7,3.8,8.7,5.7,14.9,5.7c4.4,0.2,8.7-1.1,12.4-3.5c3.4-2.3,5.7-5.8,6.6-9.8h15.9     c-1.2,7.4-5.2,14.2-11.1,18.9c-6,4.9-13.6,7.4-22.6,7.4c-7.1,0.2-14.2-1.5-20.5-4.8c-5.7-3.1-10.4-7.8-13.5-13.5     c-3.3-6.2-4.9-13.2-4.8-20.2C388.4,157,390,150,393.2,143.7 M446.3,155.7c-0.4-5-2.8-9.6-6.5-12.9c-3.9-3.2-8.9-4.8-13.9-4.6     c-4.9-0.1-9.7,1.6-13.5,4.8c-3.8,3.2-6.1,7.8-6.5,12.7L446.3,155.7z"/>
        <path id="Path_8319" d="M516.6,126.2v14.9h-7.1c-6.6,0-11.3,2.1-14.3,6.4c-2.9,4.3-4.4,9.7-4.4,16.3v37.8H475     v-75.4h14.1l1.8,11.3c2.1-3.4,4.9-6.3,8.4-8.3c3.4-2,8-3,13.8-3L516.6,126.2z"/>
        <path id="Path_8320" d="M521.6,126.2h17.1l20.8,58.3l20.5-58.3h16.8l-27.8,75.4h-19.4L521.6,126.2z"/>
        <path id="Path_8321" d="M603.9,143.7c2.9-5.7,7.4-10.4,13-13.5c5.8-3.3,12.4-4.9,19.1-4.8     c6.7-0.1,13.3,1.4,19.2,4.4c5.5,2.9,10,7.2,13.1,12.5c3.3,5.8,5,12.3,4.9,19c0,2-0.2,4-0.4,6h-56.8v0.9     c0.4,6.6,2.5,11.8,6.2,15.6c3.7,3.8,8.7,5.7,14.9,5.7c4.4,0.2,8.7-1.1,12.4-3.5c3.4-2.3,5.7-5.8,6.6-9.8h15.9     c-1.2,7.4-5.2,14.2-11.1,18.9c-6,4.9-13.6,7.4-22.6,7.4c-7.1,0.2-14.2-1.5-20.5-4.8c-5.7-3.1-10.4-7.8-13.5-13.5     c-3.3-6.2-4.9-13.2-4.8-20.2C599.1,157,600.7,150,603.9,143.7 M657,155.7c-0.4-5-2.8-9.6-6.5-12.9c-3.9-3.2-8.9-4.8-13.9-4.6     c-4.9-0.1-9.7,1.6-13.5,4.8c-3.8,3.2-6.1,7.8-6.5,12.7L657,155.7z"/>
        <path id="Path_8322" d="M744.4,130c5.4,3.1,9.8,7.7,12.7,13.3c3.2,6.4,4.7,13.5,4.6,20.6c0.1,7-1.4,13.9-4.6,20.1     c-2.9,5.6-7.2,10.4-12.7,13.6c-5.6,3.3-11.9,5-18.4,4.9c-5,0.1-10-1-14.6-3.2c-4-2-7.4-5-10-8.6l-1.9,10.9h-13.8V98.5h15.9v38.9     c6-8,14.1-12.1,24.4-12.1C732.5,125.2,738.8,126.8,744.4,130 M739.4,182.1c4.1-4.7,6.1-10.7,6.1-18.2c0-7.4-2-13.4-6.1-18     c-8.1-8.8-21.9-9.4-30.7-1.2c-0.4,0.4-0.8,0.8-1.2,1.2c-4,4.6-6,10.6-6,18c0,7.5,2,13.5,6,18.3c3.9,4.7,9.8,7.3,15.9,7.1     C729.5,189.3,735.4,186.7,739.4,182.1"/>
        <path id="Path_8323" d="M790,197.7c-5.7-3.1-10.5-7.8-13.5-13.5c-3.3-6.2-4.9-13.2-4.8-20.3     c-0.1-7,1.5-13.9,4.8-20.1c3.1-5.8,7.8-10.5,13.5-13.6c12.6-6.5,27.6-6.5,40.2,0c5.7,3.1,10.4,7.9,13.5,13.6     c3.3,6.2,4.9,13.1,4.8,20.1c0.1,7-1.5,14-4.8,20.3c-3.1,5.7-7.8,10.4-13.5,13.5C817.6,204.1,802.6,204.1,790,197.7 M826.2,182     c4.1-4.7,6.1-10.7,6.1-18s-2-13.4-6.1-18c-8.3-8.9-22.2-9.4-31.1-1.1c-0.4,0.4-0.7,0.7-1.1,1.1c-4,4.7-6,10.7-6,18     c0,7.4,2,13.4,6,18c8.3,8.9,22.2,9.4,31.1,1.1C825.5,182.7,825.9,182.3,826.2,182"/>
        <rect id="Rectangle_1567" x="861.1" y="98.5" width="15.9" height="103.1"/>
        <path id="Path_8324" d="M900.1,140.2H887v-14h13.1v-21.1h16.1v21.1h18.1v14h-18.1v39.3c0,2.9,0.6,5,1.8,6.3     c1.2,1.2,3.2,1.8,6,1.8H936v14h-15.3c-7.2,0-12.4-1.7-15.7-5c-3.3-3.3-4.9-8.5-4.9-15.5L900.1,140.2z"/>
        <path id="Path_8325" d="M143.2,84.1c0.1,0,0.1-0.1,0.1-0.1s-0.1-0.1-0.1-0.1S143,83.9,143,84     C143,84.1,143.1,84.1,143.2,84.1L143.2,84.1"/>
        <path id="Path_8326" d="M125.2,90.3L125.2,90.3c0.2,0,0.3-0.1,0.3-0.3c0,0,0,0,0,0l0,0c0-0.2-0.1-0.3-0.3-0.3     c-0.2,0-0.3,0.1-0.3,0.3c0,0,0,0,0,0C124.9,90.2,125,90.3,125.2,90.3C125.2,90.3,125.2,90.3,125.2,90.3"/>
        <path id="Path_8327" d="M131.2,90.5L131.2,90.5c0.3,0,0.5-0.2,0.5-0.5s-0.2-0.5-0.5-0.5c-0.3,0-0.5,0.2-0.5,0.5     c0,0,0,0,0,0C130.6,90.3,130.9,90.5,131.2,90.5C131.2,90.5,131.2,90.5,131.2,90.5"/>
        <path id="Path_8328" d="M137.2,90.7c0.4,0,0.7-0.3,0.7-0.7s-0.3-0.7-0.7-0.7c-0.4,0-0.7,0.3-0.7,0.7     S136.8,90.7,137.2,90.7L137.2,90.7"/>
        <path id="Path_8329" d="M143.2,90.8c0.4,0,0.8-0.3,0.8-0.8s-0.3-0.8-0.8-0.8c-0.4,0-0.8,0.3-0.8,0.8     C142.4,90.4,142.7,90.8,143.2,90.8L143.2,90.8"/>
        <path id="Path_8330" d="M113.2,96.3c0.1,0,0.3-0.1,0.3-0.3s-0.1-0.3-0.3-0.3s-0.3,0.1-0.3,0.3l0,0     C112.9,96.1,113,96.3,113.2,96.3"/>
        <path id="Path_8331" d="M119.2,96.6c0.3,0,0.6-0.3,0.6-0.6c0-0.3-0.3-0.6-0.6-0.6c-0.3,0-0.6,0.3-0.6,0.6     c0,0,0,0,0,0C118.6,96.3,118.8,96.6,119.2,96.6C119.2,96.6,119.2,96.6,119.2,96.6"/>
        <path id="Path_8332" d="M125.2,96.9c0.5,0,0.9-0.4,0.9-0.9s-0.4-0.9-0.9-0.9c-0.5,0-0.9,0.4-0.9,0.9l0,0     C124.3,96.5,124.7,96.9,125.2,96.9"/>
        <path id="Path_8333" d="M131.2,97.2L131.2,97.2c0.6,0,1.2-0.5,1.2-1.2c0-0.6-0.5-1.2-1.2-1.2     c-0.6,0-1.2,0.5-1.2,1.2C130,96.6,130.5,97.2,131.2,97.2C131.2,97.2,131.2,97.2,131.2,97.2"/>
        <path id="Path_8334" d="M137.2,97.4L137.2,97.4c0.7,0,1.3-0.6,1.3-1.4c0-0.7-0.6-1.3-1.4-1.3     c-0.7,0-1.3,0.6-1.3,1.4C135.8,96.7,136.4,97.4,137.2,97.4C137.2,97.4,137.2,97.4,137.2,97.4"/>
        <path id="Path_8335" d="M143.2,97.5c0.8,0,1.5-0.7,1.5-1.5s-0.7-1.5-1.5-1.5c-0.8,0-1.5,0.7-1.5,1.5l0,0     C141.7,96.8,142.4,97.5,143.2,97.5"/>
        <path id="Path_8336" d="M107.1,102.4L107.1,102.4c0.2,0,0.4-0.2,0.4-0.4c0-0.2-0.2-0.4-0.4-0.4     c-0.2,0-0.4,0.2-0.4,0.4C106.8,102.2,106.9,102.4,107.1,102.4"/>
        <path id="Path_8337" d="M113.2,102.8c0.4,0,0.8-0.4,0.8-0.8s-0.4-0.8-0.8-0.8c-0.4,0-0.8,0.4-0.8,0.8     S112.7,102.8,113.2,102.8L113.2,102.8"/>
        <path id="Path_8338" d="M119.2,103.2c0.7,0,1.2-0.5,1.2-1.2s-0.5-1.2-1.2-1.2s-1.2,0.5-1.2,1.2l0,0     C118,102.7,118.5,103.2,119.2,103.2"/>
        <path id="Path_8339" d="M125.2,103.5c0.8,0,1.5-0.7,1.5-1.5c0-0.8-0.7-1.5-1.5-1.5c-0.8,0-1.5,0.7-1.5,1.5l0,0     C123.6,102.8,124.3,103.5,125.2,103.5C125.2,103.5,125.2,103.5,125.2,103.5"/>
        <path id="Path_8340" d="M131.2,103.8c1,0,1.8-0.8,1.8-1.8s-0.8-1.8-1.8-1.8s-1.8,0.8-1.8,1.8     S130.2,103.8,131.2,103.8L131.2,103.8"/>
        <path id="Path_8341" d="M137.2,104L137.2,104c1.1,0,2-0.9,2-2c0-1.1-0.9-2-2-2c-1.1,0-2,0.9-2,2c0,0,0,0,0,0     C135.2,103.1,136.1,104,137.2,104"/>
        <path id="Path_8342" d="M143.2,104.1c1.2,0,2.1-1,2.1-2.1s-1-2.1-2.1-2.1s-2.1,1-2.1,2.1     C141,103.2,142,104.1,143.2,104.1L143.2,104.1"/>
        <path id="Path_8343" d="M101.2,108.4c0.2,0,0.4-0.2,0.4-0.4c0-0.2-0.2-0.4-0.4-0.4c-0.2,0-0.4,0.2-0.4,0.4     C100.8,108.2,100.9,108.4,101.2,108.4C101.2,108.4,101.2,108.4,101.2,108.4"/>
        <path id="Path_8344" d="M107.2,108.9L107.2,108.9c0.5,0,0.9-0.4,0.9-0.9c0-0.5-0.4-0.9-0.9-0.9     c-0.5,0-0.9,0.4-0.9,0.9v0C106.3,108.5,106.7,108.9,107.2,108.9L107.2,108.9"/>
        <path id="Path_8345" d="M113.2,109.3c0.7,0,1.3-0.6,1.3-1.3s-0.6-1.3-1.3-1.3s-1.3,0.6-1.3,1.3l0,0     C111.8,108.7,112.4,109.3,113.2,109.3"/>
        <path id="Path_8346" d="M119.2,109.8L119.2,109.8c1,0,1.8-0.8,1.8-1.8c0-1-0.8-1.8-1.8-1.8c-1,0-1.8,0.8-1.8,1.8     C117.4,109,118.2,109.8,119.2,109.8"/>
        <path id="Path_8347" d="M125.2,110.1L125.2,110.1c1.2,0,2.1-1,2.1-2.1s-1-2.1-2.1-2.1c-1.2,0-2.1,1-2.1,2.1     C123,109.2,124,110.1,125.2,110.1C125.2,110.1,125.2,110.1,125.2,110.1"/>
        <path id="Path_8348" d="M131.2,110.4L131.2,110.4c1.3,0,2.4-1.1,2.4-2.4s-1.1-2.4-2.4-2.4c-1.3,0-2.4,1.1-2.4,2.4     S129.8,110.4,131.2,110.4L131.2,110.4"/>
        <path id="Path_8349" d="M137.2,110.7L137.2,110.7c1.5,0,2.7-1.2,2.7-2.7c0-1.5-1.2-2.7-2.7-2.7     c-1.5,0-2.7,1.2-2.7,2.7v0C134.5,109.5,135.7,110.7,137.2,110.7"/>
        <path id="Path_8350" d="M95.2,114.3L95.2,114.3c0.1,0,0.3-0.1,0.3-0.3c0-0.1-0.1-0.3-0.3-0.3     c-0.1,0-0.3,0.1-0.3,0.3C94.9,114.1,95,114.3,95.2,114.3C95.2,114.3,95.2,114.3,95.2,114.3"/>
        <path id="Path_8351" d="M101.2,114.8L101.2,114.8c0.4,0,0.8-0.4,0.8-0.8c0-0.4-0.4-0.8-0.8-0.8     c-0.4,0-0.8,0.4-0.8,0.8S100.7,114.8,101.2,114.8C101.2,114.8,101.2,114.8,101.2,114.8"/>
        <path id="Path_8352" d="M107.2,115.3c0.7,0,1.3-0.6,1.3-1.3s-0.6-1.3-1.3-1.3c-0.7,0-1.3,0.6-1.3,1.3l0,0     C105.8,114.7,106.4,115.3,107.2,115.3"/>
        <path id="Path_8353" d="M113.2,115.8L113.2,115.8c1,0,1.8-0.8,1.8-1.8c0-1-0.8-1.8-1.8-1.8c-1,0-1.8,0.8-1.8,1.8     C111.3,115,112.2,115.8,113.2,115.8C113.2,115.8,113.2,115.8,113.2,115.8"/>
        <path id="Path_8354" d="M119.2,116.3L119.2,116.3c1.3,0,2.3-1,2.3-2.3c0-1.3-1-2.3-2.3-2.3c-1.3,0-2.3,1-2.3,2.3     C116.9,115.3,117.9,116.3,119.2,116.3"/>
        <path id="Path_8355" d="M125.2,116.7L125.2,116.7c1.5,0,2.7-1.2,2.7-2.7c0-1.5-1.2-2.7-2.7-2.7     c-1.5,0-2.7,1.2-2.7,2.7c0,0,0,0,0,0v0C122.5,115.5,123.7,116.7,125.2,116.7C125.2,116.7,125.2,116.7,125.2,116.7"/>
        <path id="Path_8356" d="M95.2,120.6L95.2,120.6c0.3,0,0.6-0.3,0.6-0.6s-0.3-0.6-0.6-0.6c-0.3,0-0.6,0.3-0.6,0.6     l0,0C94.5,120.3,94.8,120.6,95.2,120.6C95.2,120.6,95.2,120.6,95.2,120.6"/>
        <path id="Path_8357" d="M101.2,121.2c0.7,0,1.2-0.5,1.2-1.2c0-0.7-0.5-1.2-1.2-1.2c-0.7,0-1.2,0.5-1.2,1.2l0,0     C100,120.7,100.5,121.2,101.2,121.2"/>
        <path id="Path_8358" d="M107.2,121.8L107.2,121.8c0.9,0,1.6-0.7,1.6-1.6c0-0.9-0.7-1.6-1.6-1.6     c-0.9,0-1.6,0.7-1.6,1.6C105.6,121,106.3,121.8,107.2,121.8"/>
        <path id="Path_8359" d="M113.2,122.3L113.2,122.3c1.3,0,2.3-1,2.3-2.3c0-1.3-1-2.3-2.3-2.3s-2.3,1-2.3,2.3     C110.9,121.3,111.9,122.3,113.2,122.3"/>
        <path id="Path_8360" d="M89.2,126.3L89.2,126.3c0.2,0,0.3-0.1,0.3-0.3c0,0,0,0,0,0l0,0c0-0.2-0.1-0.3-0.3-0.3     c-0.2,0-0.3,0.1-0.3,0.3C88.9,126.2,89,126.3,89.2,126.3"/>
        <path id="Path_8361" d="M95.2,126.9L95.2,126.9c0.5,0,0.9-0.4,0.9-0.9c0-0.5-0.4-0.9-0.9-0.9     c-0.5,0-0.9,0.4-0.9,0.9v0C94.3,126.5,94.7,126.9,95.2,126.9"/>
        <path id="Path_8362" d="M101.2,127.5c0.8,0,1.5-0.7,1.5-1.5c0-0.8-0.7-1.5-1.5-1.5c-0.8,0-1.5,0.7-1.5,1.5l0,0     C99.6,126.8,100.3,127.5,101.2,127.5"/>
        <path id="Path_8363" d="M107.2,128.1c1.2,0,2.1-1,2.1-2.1c0-1.2-1-2.1-2.1-2.1c-1.2,0-2.1,1-2.1,2.1     S106,128.1,107.2,128.1L107.2,128.1"/>
        <path id="Path_8364" d="M113.2,128.7L113.2,128.7c1.5,0,2.7-1.2,2.7-2.7c0-1.5-1.2-2.7-2.7-2.7s-2.7,1.2-2.7,2.7     c0,0,0,0,0,0v0C110.5,127.5,111.7,128.7,113.2,128.7C113.2,128.7,113.2,128.7,113.2,128.7"/>
        <path id="Path_8365" d="M89.2,132.5c0.3,0,0.5-0.2,0.5-0.5s-0.2-0.5-0.5-0.5c-0.3,0-0.5,0.2-0.5,0.5     S88.9,132.5,89.2,132.5C89.2,132.5,89.2,132.5,89.2,132.5"/>
        <path id="Path_8366" d="M95.2,133.2c0.6,0,1.2-0.5,1.2-1.2c0-0.6-0.5-1.2-1.2-1.2c-0.6,0-1.2,0.5-1.2,1.2     C94,132.6,94.5,133.2,95.2,133.2C95.2,133.2,95.2,133.2,95.2,133.2"/>
        <path id="Path_8367" d="M101.2,133.8c1,0,1.8-0.8,1.8-1.8c0-1-0.8-1.8-1.8-1.8c-1,0-1.8,0.8-1.8,1.8     C99.4,133,100.2,133.8,101.2,133.8L101.2,133.8"/>
        <path id="Path_8368" d="M101.2,166.2c-1,0-1.8,0.8-1.8,1.8s0.8,1.8,1.8,1.8c1,0,1.8-0.8,1.8-1.8     S102.2,166.2,101.2,166.2L101.2,166.2"/>
        <path id="Path_8369" d="M107.2,134.4L107.2,134.4c1.4,0,2.4-1.1,2.4-2.4c0-1.3-1.1-2.4-2.4-2.4     c-1.3,0-2.4,1.1-2.4,2.4C104.7,133.3,105.8,134.4,107.2,134.4"/>
        <path id="Path_8370" d="M95.2,139.3L95.2,139.3c0.7,0,1.3-0.6,1.3-1.4c0-0.7-0.6-1.3-1.4-1.3     c-0.7,0-1.3,0.6-1.3,1.4C93.8,138.7,94.4,139.3,95.2,139.3C95.2,139.3,95.2,139.3,95.2,139.3"/>
        <path id="Path_8371" d="M101.2,140L101.2,140c1.1,0,2-0.9,2-2s-0.9-2-2-2s-2,0.9-2,2l0,0     C99.2,139.1,100.1,140,101.2,140C101.2,140,101.2,140,101.2,140"/>
        <path id="Path_8372" d="M107.2,140.7L107.2,140.7c1.5,0,2.7-1.2,2.7-2.7s-1.2-2.7-2.7-2.7c-1.5,0-2.7,1.2-2.7,2.7     l0,0C104.5,139.5,105.7,140.7,107.2,140.7"/>
        <path id="Path_8373" d="M83.2,144.2c0.1,0,0.1-0.1,0.1-0.1c0-0.1-0.1-0.1-0.1-0.1S83,143.9,83,144     C83,144.1,83.1,144.2,83.2,144.2C83.2,144.2,83.2,144.2,83.2,144.2"/>
        <path id="Path_8374" d="M89.2,144.8c0.4,0,0.8-0.3,0.8-0.8c0-0.4-0.3-0.8-0.8-0.8s-0.8,0.3-0.8,0.8     C88.4,144.4,88.7,144.8,89.2,144.8C89.2,144.8,89.2,144.8,89.2,144.8"/>
        <path id="Path_8375" d="M95.2,145.5L95.2,145.5c0.8,0,1.5-0.7,1.5-1.5c0-0.8-0.7-1.5-1.5-1.5     c-0.8,0-1.5,0.7-1.5,1.5l0,0C93.7,144.8,94.4,145.5,95.2,145.5"/>
        <path id="Path_8376" d="M101.2,146.1c1.2,0,2.1-1,2.1-2.1s-1-2.1-2.1-2.1c-1.2,0-2.1,1-2.1,2.1v0     C99,145.2,100,146.1,101.2,146.1"/>
        <path id="Path_8377" d="M83.2,149.8L83.2,149.8L83.2,149.8c-0.1,0-0.2,0.1-0.2,0.2c0,0,0,0,0,0l0,0     c0,0.1,0.1,0.2,0.2,0.2c0.1,0,0.2-0.1,0.2-0.2C83.3,149.9,83.3,149.8,83.2,149.8C83.2,149.8,83.2,149.8,83.2,149.8"/>
        <path id="Path_8378" d="M89.2,149.2L89.2,149.2c-0.5,0-0.8,0.4-0.8,0.8c0,0.5,0.4,0.8,0.8,0.8s0.8-0.4,0.8-0.8     c0,0,0,0,0,0l0,0C90,149.6,89.6,149.2,89.2,149.2"/>
        <path id="Path_8379" d="M95.2,148.5L95.2,148.5c-0.8,0-1.5,0.7-1.5,1.5c0,0.8,0.7,1.5,1.5,1.5     c0.8,0,1.5-0.7,1.5-1.5v0C96.7,149.2,96,148.5,95.2,148.5C95.2,148.5,95.2,148.5,95.2,148.5"/>
        <path id="Path_8380" d="M101.2,147.8L101.2,147.8c-1.2,0-2.2,1-2.2,2.2c0,1.2,1,2.2,2.2,2.2c1.2,0,2.2-1,2.2-2.2     C103.4,148.8,102.4,147.8,101.2,147.8C101.2,147.8,101.2,147.8,101.2,147.8"/>
        <path id="Path_8381" d="M83.2,155.9c-0.1,0-0.1,0.1-0.1,0.1s0.1,0.1,0.1,0.1s0.1-0.1,0.1-0.1     C83.3,155.9,83.2,155.9,83.2,155.9"/>
        <path id="Path_8382" d="M89.2,155.2c-0.4,0-0.8,0.3-0.8,0.8c0,0.4,0.3,0.8,0.8,0.8c0.4,0,0.8-0.3,0.8-0.8     S89.6,155.2,89.2,155.2C89.2,155.2,89.2,155.2,89.2,155.2"/>
        <path id="Path_8383" d="M95.2,154.5L95.2,154.5z"/>
        <path id="Path_8384" d="M95.2,154.5c-0.8,0-1.5,0.7-1.5,1.5c0,0.8,0.7,1.5,1.5,1.5c0.8,0,1.5-0.7,1.5-1.5v0     C96.6,155.2,96,154.5,95.2,154.5"/>
        <path id="Path_8385" d="M101.2,153.9c-1.2,0-2.1,1-2.1,2.1c0,1.2,1,2.1,2.1,2.1c1.2,0,2.1-1,2.1-2.1     C103.3,154.8,102.3,153.9,101.2,153.9L101.2,153.9"/>
        <path id="Path_8386" d="M89.2,161.3c-0.4,0-0.7,0.3-0.7,0.7c0,0.4,0.3,0.7,0.7,0.7s0.7-0.3,0.7-0.7     C89.8,161.6,89.5,161.3,89.2,161.3C89.2,161.3,89.2,161.3,89.2,161.3"/>
        <path id="Path_8387" d="M89.2,138.7c0.4,0,0.7-0.3,0.7-0.7c0-0.4-0.3-0.7-0.7-0.7s-0.7,0.3-0.7,0.7     S88.8,138.7,89.2,138.7C89.2,138.7,89.2,138.7,89.2,138.7"/>
        <path id="Path_8388" d="M101.2,160L101.2,160c-1.1,0-2,0.9-2,2s0.9,2,2,2c1.1,0,2-0.9,2-2l0,0l0,0     C103.2,160.9,102.3,160,101.2,160"/>
        <path id="Path_8389" d="M89.2,167.5c-0.3,0-0.5,0.2-0.5,0.5c0,0.3,0.2,0.5,0.5,0.5c0.3,0,0.5-0.2,0.5-0.5l0,0     C89.7,167.7,89.5,167.5,89.2,167.5"/>
        <path id="Path_8390" d="M95.2,166.8L95.2,166.8L95.2,166.8c-0.7,0-1.2,0.5-1.2,1.2s0.5,1.2,1.2,1.2     c0.6,0,1.2-0.5,1.2-1.2C96.4,167.4,95.8,166.8,95.2,166.8C95.2,166.8,95.2,166.8,95.2,166.8"/>
        <path id="Path_8391" d="M107.2,165.6c-1.4,0-2.5,1.1-2.5,2.4c0,1.4,1.1,2.5,2.4,2.5c1.4,0,2.5-1.1,2.5-2.4l0,0     C109.6,166.7,108.5,165.6,107.2,165.6"/>
        <path id="Path_8392" d="M89.2,173.7L89.2,173.7c-0.2,0-0.3,0.1-0.3,0.3c0,0.2,0.1,0.3,0.3,0.3     c0.2,0,0.3-0.1,0.3-0.3c0,0,0,0,0,0C89.5,173.8,89.3,173.7,89.2,173.7C89.2,173.7,89.2,173.7,89.2,173.7"/>
        <path id="Path_8393" d="M95.2,173.1c-0.5,0-0.9,0.4-0.9,0.9c0,0.5,0.4,0.9,0.9,0.9s0.9-0.4,0.9-0.9l0,0     C96.1,173.5,95.7,173.1,95.2,173.1"/>
        <path id="Path_8394" d="M101.2,172.5c-0.9,0-1.5,0.7-1.5,1.5c0,0.9,0.7,1.5,1.5,1.5c0.9,0,1.5-0.7,1.5-1.5l0,0     C102.7,173.1,102,172.5,101.2,172.5"/>
        <path id="Path_8395" d="M107.2,171.9c-1.2,0-2.2,1-2.2,2.1c0,1.2,1,2.2,2.1,2.2c1.2,0,2.2-1,2.2-2.1l0,0v0     C109.3,172.8,108.4,171.9,107.2,171.9"/>
        <path id="Path_8396" d="M95.2,179.4L95.2,179.4c-0.3,0-0.6,0.3-0.6,0.6s0.3,0.6,0.6,0.6c0.3,0,0.6-0.3,0.6-0.6     S95.5,179.4,95.2,179.4"/>
        <path id="Path_8397" d="M101.2,178.8L101.2,178.8c-0.7,0-1.2,0.5-1.2,1.2s0.5,1.2,1.2,1.2c0.7,0,1.2-0.5,1.2-1.2     C102.4,179.3,101.8,178.8,101.2,178.8"/>
        <path id="Path_8398" d="M107.2,178.2c-1,0-1.8,0.8-1.8,1.8c0,1,0.8,1.8,1.8,1.8c1,0,1.8-0.8,1.8-1.8c0,0,0,0,0,0     C109,179,108.2,178.2,107.2,178.2"/>
        <path id="Path_8399" d="M113.2,177.7L113.2,177.7c-1.3,0-2.3,1-2.3,2.3c0,1.3,1,2.3,2.3,2.3c1.3,0,2.3-1,2.3-2.3     C115.5,178.7,114.5,177.7,113.2,177.7C113.2,177.7,113.2,177.7,113.2,177.7"/>
        <path id="Path_8400" d="M95.2,185.7L95.2,185.7c-0.2,0-0.3,0.1-0.3,0.3v0l0,0c0,0.2,0.1,0.3,0.3,0.3     c0.2,0,0.3-0.1,0.3-0.3C95.5,185.8,95.3,185.7,95.2,185.7"/>
        <path id="Path_8401" d="M101.2,185.2c-0.5,0-0.8,0.4-0.8,0.8s0.4,0.8,0.8,0.8c0.5,0,0.8-0.4,0.8-0.8     S101.6,185.2,101.2,185.2C101.2,185.2,101.2,185.2,101.2,185.2"/>
        <path id="Path_8402" d="M107.2,184.6L107.2,184.6c-0.8,0-1.4,0.6-1.4,1.4c0,0.8,0.6,1.4,1.4,1.4     c0.8,0,1.4-0.6,1.4-1.4c0,0,0,0,0,0l0,0C108.5,185.3,107.9,184.6,107.2,184.6"/>
        <path id="Path_8403" d="M113.2,184.1L113.2,184.1c-1,0-1.9,0.8-1.9,1.9c0,1,0.8,1.9,1.9,1.9c1,0,1.9-0.8,1.9-1.9     C115.1,185,114.2,184.1,113.2,184.1C113.2,184.1,113.2,184.1,113.2,184.1"/>
        <path id="Path_8404" d="M119.2,183.7c-1.3,0-2.3,1-2.3,2.3c0,1.3,1,2.3,2.3,2.3s2.3-1,2.3-2.3     C121.5,184.7,120.5,183.7,119.2,183.7L119.2,183.7"/>
        <path id="Path_8405" d="M101.2,191.6L101.2,191.6c-0.2,0-0.4,0.2-0.4,0.4s0.2,0.4,0.4,0.4c0.2,0,0.4-0.2,0.4-0.4     C101.6,191.8,101.4,191.6,101.2,191.6C101.2,191.6,101.2,191.6,101.2,191.6"/>
        <path id="Path_8406" d="M107.2,191.1L107.2,191.1c-0.5,0-0.9,0.4-0.9,0.9c0,0.5,0.4,0.9,0.9,0.9     c0.5,0,0.9-0.4,0.9-0.9v0C108.1,191.5,107.7,191.1,107.2,191.1"/>
        <path id="Path_8407" d="M113.2,190.6c-0.8,0-1.4,0.6-1.4,1.4c0,0.8,0.6,1.4,1.4,1.4c0.8,0,1.4-0.6,1.4-1.4     C114.6,191.2,113.9,190.6,113.2,190.6L113.2,190.6"/>
        <path id="Path_8408" d="M119.2,190.2c-1,0-1.8,0.8-1.8,1.8c0,1,0.8,1.8,1.8,1.8c1,0,1.8-0.8,1.8-1.8l0,0     C121,191,120.2,190.2,119.2,190.2"/>
        <path id="Path_8409" d="M125.2,189.8L125.2,189.8c-1.2,0-2.2,1-2.2,2.2c0,1.2,1,2.2,2.2,2.2c1.2,0,2.2-1,2.2-2.2     c0,0,0,0,0,0l0,0C127.4,190.8,126.4,189.8,125.2,189.8C125.2,189.8,125.2,189.8,125.2,189.8"/>
        <path id="Path_8410" d="M131.2,189.5L131.2,189.5c-1.4,0-2.5,1.1-2.5,2.5s1.1,2.5,2.5,2.5s2.5-1.1,2.5-2.5     S132.5,189.5,131.2,189.5C131.2,189.5,131.2,189.5,131.2,189.5"/>
        <path id="Path_8411" d="M107.2,197.6L107.2,197.6c-0.2,0-0.4,0.2-0.4,0.4c0,0.2,0.2,0.4,0.4,0.4s0.4-0.2,0.4-0.4     l0,0C107.6,197.8,107.4,197.6,107.2,197.6"/>
        <path id="Path_8412" d="M113.2,197.2L113.2,197.2c-0.5,0-0.9,0.4-0.9,0.8c0,0.5,0.4,0.9,0.8,0.9     c0.5,0,0.9-0.4,0.9-0.8l0,0C114,197.5,113.7,197.2,113.2,197.2"/>
        <path id="Path_8413" d="M119.2,196.8L119.2,196.8c-0.7,0-1.2,0.6-1.2,1.2c0,0.7,0.6,1.2,1.2,1.2     c0.7,0,1.2-0.6,1.2-1.2C120.4,197.3,119.9,196.8,119.2,196.8C119.2,196.8,119.2,196.8,119.2,196.8"/>
        <path id="Path_8414" d="M125.2,196.4L125.2,196.4c-0.9,0-1.6,0.7-1.6,1.6c0,0.9,0.7,1.6,1.6,1.6     c0.9,0,1.6-0.7,1.6-1.6C126.8,197.1,126,196.4,125.2,196.4C125.2,196.4,125.2,196.4,125.2,196.4"/>
        <path id="Path_8415" d="M131.2,196.2c-1,0-1.8,0.8-1.8,1.8c0,1,0.8,1.8,1.8,1.8c1,0,1.8-0.8,1.8-1.8c0,0,0,0,0,0     C133,197,132.2,196.1,131.2,196.2C131.2,196.1,131.2,196.1,131.2,196.2"/>
        <path id="Path_8416" d="M137.2,196c-1.1,0-2,0.9-2.1,2c0,1.1,0.9,2,2,2.1c1.1,0,2-0.9,2.1-2c0,0,0,0,0,0l0,0     C139.2,196.9,138.3,196,137.2,196"/>
        <path id="Path_8417" d="M143.2,195.8c-1.2,0-2.2,1-2.2,2.2c0,1.2,1,2.2,2.2,2.2c1.2,0,2.2-1,2.2-2.2c0,0,0,0,0,0     l0,0C145.3,196.8,144.4,195.8,143.2,195.8"/>
        <path id="Path_8418" d="M113.2,203.7c-0.2,0-0.3,0.1-0.3,0.3c0,0.2,0.1,0.3,0.3,0.3c0.2,0,0.3-0.1,0.3-0.3     C113.5,203.8,113.3,203.7,113.2,203.7L113.2,203.7"/>
        <path id="Path_8419" d="M119.2,203.3c-0.4,0-0.6,0.3-0.6,0.6c0,0.4,0.3,0.6,0.6,0.6c0.4,0,0.6-0.3,0.6-0.6l0,0     C119.8,203.6,119.5,203.3,119.2,203.3"/>
        <path id="Path_8420" d="M125.2,203L125.2,203c-0.5,0-1,0.4-1,1c0,0.5,0.4,1,1,1s1-0.4,1-1     C126.1,203.5,125.7,203,125.2,203L125.2,203"/>
        <path id="Path_8421" d="M131.2,202.8L131.2,202.8c-0.7,0-1.2,0.5-1.2,1.2c0,0.7,0.5,1.2,1.2,1.2     c0.7,0,1.2-0.5,1.2-1.2C132.4,203.3,131.9,202.8,131.2,202.8C131.2,202.8,131.2,202.8,131.2,202.8"/>
        <path id="Path_8422" d="M137.2,202.6L137.2,202.6c-0.8,0-1.4,0.6-1.4,1.4s0.6,1.4,1.4,1.4c0.8,0,1.4-0.6,1.4-1.4     C138.6,203.2,137.9,202.6,137.2,202.6C137.2,202.6,137.2,202.6,137.2,202.6"/>
        <path id="Path_8423" d="M143.2,202.5L143.2,202.5c-0.8,0-1.5,0.7-1.5,1.5c0,0.8,0.7,1.5,1.5,1.5     c0.8,0,1.5-0.7,1.5-1.5C144.7,203.2,144,202.5,143.2,202.5C143.2,202.5,143.2,202.5,143.2,202.5"/>
        <path id="Path_8424" d="M125.2,209.7L125.2,209.7c-0.2,0-0.3,0.1-0.3,0.3c0,0.2,0.1,0.3,0.3,0.3     c0.2,0,0.3-0.1,0.3-0.3l0,0C125.5,209.8,125.4,209.7,125.2,209.7"/>
        <path id="Path_8425" d="M131.2,209.4L131.2,209.4c-0.3,0-0.6,0.3-0.6,0.6c0,0.3,0.3,0.6,0.6,0.6     c0.3,0,0.6-0.3,0.6-0.6C131.7,209.7,131.5,209.4,131.2,209.4"/>
        <path id="Path_8426" d="M137.2,209.3L137.2,209.3c-0.4,0-0.7,0.3-0.7,0.7c0,0.4,0.3,0.7,0.7,0.7     c0.4,0,0.7-0.3,0.7-0.7C137.9,209.6,137.6,209.3,137.2,209.3"/>
        <path id="Path_8427" d="M143.2,209.2L143.2,209.2c-0.5,0-0.9,0.4-0.9,0.8c0,0.5,0.4,0.9,0.8,0.9     c0.5,0,0.9-0.4,0.9-0.8l0,0C144,209.5,143.6,209.2,143.2,209.2"/>
        <path id="Path_8428" d="M143.2,215.8c-0.1,0-0.2,0.1-0.2,0.2s0.1,0.2,0.2,0.2c0.1,0,0.2-0.1,0.2-0.2     C143.4,215.9,143.3,215.8,143.2,215.8L143.2,215.8"/>
        <path id="Path_8429" d="M149.4,75L149.4,75v8.8h0c-0.1,0-0.2,0.1-0.2,0.2c0,0.1,0.1,0.2,0.1,0.2h0l0,0v5h0     c-0.4,0-0.8,0.3-0.8,0.8c0,0.4,0.3,0.8,0.8,0.8h0.1v3.7h0c-0.8,0-1.5,0.7-1.5,1.5c0,0.8,0.7,1.4,1.5,1.5h0v2.3h0     c-1.2,0-2.1,1-2.1,2.3c0,1.1,1,2.1,2.1,2.1l0,0v1h0c-1.6,0-2.8,1.3-2.8,2.8c0,1.2,0.7,2.2,1.8,2.6c-0.8,0.3-1.5,0.8-2,1.6     c-0.5-0.8-1.2-1.3-2.1-1.6c1.5-0.5,2.2-2.1,1.7-3.5c-0.5-1.5-2.1-2.2-3.5-1.7c-1.5,0.5-2.2,2.1-1.7,3.5c0.3,0.8,0.9,1.5,1.7,1.7     c-1,0.3-1.8,0.9-2.2,1.8c-0.9-1.6-2.9-2.2-4.5-1.3c-0.7,0.4-1.3,1.1-1.6,1.9c-0.6-1.6-2.3-2.4-3.9-1.9s-2.4,2.3-1.9,3.9     c0.2,0.7,0.7,1.3,1.4,1.7c-0.8,0.3-1.4,0.9-1.8,1.7c-0.9-1.5-2.9-2-4.5-1.1c-0.9,0.5-1.4,1.4-1.5,2.4c-0.2-1.5-1.6-2.6-3.1-2.4     c-1.5,0.2-2.6,1.6-2.4,3.1c0.2,1.3,1.2,2.3,2.4,2.4c-1.8,0.2-3.1,1.8-2.9,3.5c0.1,1,0.7,1.9,1.6,2.4c-0.7,0.4-1.3,1-1.7,1.8     c-0.8-1.5-2.7-2-4.1-1.2s-2,2.7-1.2,4.1c0.4,0.7,0.9,1.2,1.6,1.4c-1.7,0.6-2.7,2.4-2.1,4.2c0.3,0.8,0.8,1.5,1.6,1.9     c-0.9,0.4-1.5,1.2-1.8,2.2c-0.5-1.5-2.1-2.2-3.5-1.7c-1.5,0.5-2.2,2.1-1.7,3.5s2.1,2.2,3.5,1.7c0.8-0.3,1.5-0.9,1.7-1.7     c0.2,0.9,0.8,1.6,1.6,2.1c-0.7,0.4-1.3,1.1-1.6,2c-0.6-1.5-2.2-2.2-3.7-1.6c-1.5,0.6-2.2,2.2-1.6,3.7s2.2,2.2,3.7,1.6     c0.7-0.3,1.3-0.9,1.6-1.6c0.3,0.8,0.8,1.5,1.6,2c-0.8,0.5-1.3,1.2-1.5,2c-0.5-1.5-2.1-2.2-3.6-1.7s-2.2,2.1-1.7,3.6     c0.5,1.5,2.1,2.2,3.6,1.7c0.8-0.3,1.4-0.9,1.7-1.7c0.3,0.9,0.9,1.7,1.7,2.2c-1,0.6-1.7,1.7-1.7,2.9c0-1.5-1.3-2.7-2.7-2.6     c-1.5,0-2.7,1.3-2.6,2.7s1.3,2.7,2.7,2.6c1.4,0,2.6-1.2,2.6-2.6c0,1.4,0.9,2.6,2.2,3.1c-1.6,0.6-2.4,2.4-1.8,3.9     c0.6,1.6,2.4,2.4,3.9,1.8c0.7-0.3,1.2-0.7,1.6-1.4c0.3,0.7,0.9,1.3,1.6,1.7c-0.9,0.6-1.5,1.6-1.5,2.7c0-1.5-1.3-2.7-2.8-2.7     c-1.5,0-2.7,1.3-2.7,2.8c0,1.5,1.3,2.7,2.8,2.7c1.5,0,2.6-1.2,2.7-2.7c0,1.6,1.2,2.9,2.7,3.2c-1.5,0.3-2.5,1.8-2.2,3.3     s1.8,2.5,3.3,2.2c1.1-0.2,2-1.1,2.2-2.2c0.3,1.4,1.4,2.5,2.9,2.7c-1.5,0.2-2.6,1.6-2.4,3.1c0.2,1.5,1.6,2.6,3.1,2.4     c1.5-0.2,2.6-1.6,2.4-3.1c-0.2-1.2-1.1-2.2-2.4-2.4c1-0.1,1.9-0.7,2.4-1.5c0.4,0.7,1,1.2,1.7,1.6c-1.5,0.9-2,2.8-1.1,4.2     c0.9,1.5,2.8,2,4.2,1.1c0.6-0.3,1-0.9,1.3-1.5c0.4,1.2,1.5,2,2.7,2.1c-1.5,0.2-2.5,1.6-2.2,3.1c0.2,1.5,1.6,2.5,3.1,2.2     c1.5-0.2,2.5-1.6,2.2-3.1c-0.2-1.1-1.1-2-2.2-2.2c1-0.1,1.9-0.7,2.5-1.6c0.4,0.8,1.2,1.4,2,1.7c-1.5,0.6-2.2,2.3-1.6,3.7     c0.6,1.5,2.3,2.2,3.7,1.6c1.5-0.6,2.2-2.3,1.6-3.7c-0.3-0.7-0.9-1.3-1.6-1.6c0.8-0.2,1.4-0.8,1.9-1.4c0.4,0.7,1.1,1.2,1.8,1.5     c-1.5,0.7-2.1,2.4-1.4,3.9c0.5,1,1.5,1.7,2.6,1.7l0,0v0.9l0,0c-1.2,0-2.3,0.9-2.3,2.2c0,1.2,0.9,2.3,2.2,2.3c0,0,0.1,0,0.1,0h0     v2.2h0c-0.9,0-1.6,0.7-1.6,1.5c0,0.9,0.7,1.6,1.5,1.6h0.1v3.6h0c-0.5,0-0.8,0.4-0.8,0.9c0,0.4,0.4,0.8,0.8,0.8h0v4.9l0,0     c-0.1,0-0.2,0.1-0.2,0.2c0,0,0,0,0,0l0,0c0,0.1,0.1,0.2,0.2,0.2c0,0,0,0,0,0h0v8.8c41.4,0.3,75.3-33,75.6-74.4     c0.3-41.4-33-75.3-74.4-75.6C150.2,75,149.8,75,149.4,75 M122.1,120.3L122.1,120.3c0.1,0.9,0.5,1.7,1.2,2.2c-0.5,0.5-1,1-1.5,1.5     c-0.5-0.7-1.3-1.1-2.2-1.2C121,122.6,122,121.6,122.1,120.3 M122.1,179.4L122.1,179.4c-0.2-1.1-1.1-1.9-2.2-2.2     c0.8-0.1,1.5-0.6,2-1.2c0.5,0.5,0.9,0.9,1.4,1.4C122.7,177.9,122.3,178.6,122.1,179.4"/>
        <path id="Path_8430" d="M95.2,160.7c-0.7,0-1.4,0.6-1.4,1.4c0,0.7,0.6,1.4,1.4,1.4l0,0c0.7,0,1.4-0.6,1.4-1.4     C96.5,161.3,95.9,160.7,95.2,160.7L95.2,160.7"/>
    </g>
</switch>
</svg>