<?xml version="1.0" encoding="utf-8"?>
<!-- Generator: Adobe Illustrator 24.0.3, SVG Export Plug-In . SVG Version: 6.00 Build 0)  -->
<svg version="1.1" class="servebolt-icon" id="servebolt-svg-icon" xmlns="http://www.w3.org/2000/svg" xmlns:xlink="http://www.w3.org/1999/xlink" enable-background="new 0 0 225 225" viewBox="45.5 37.5 141.8 150.2" xml:space="preserve">
<switch>
	<g>
		<g fill="#fff">
			<path d="m105.7 46.6c0.1 0 0.1-0.1 0.1-0.1 0-0.1-0.1-0.1-0.1-0.1-0.1 0-0.1 0.1-0.1 0.1-0.1 0.1 0 0.1 0.1 0.1"/>
			<path d="m87.7 52.8c0.2 0 0.3-0.1 0.3-0.3s-0.1-0.3-0.3-0.3-0.3 0.1-0.3 0.3 0.1 0.3 0.3 0.3"/>
			<path d="m93.7 53c0.3 0 0.5-0.2 0.5-0.5s-0.2-0.5-0.5-0.5-0.5 0.2-0.5 0.5 0.2 0.5 0.5 0.5"/>
			<path d="m99.7 53.2c0.4 0 0.7-0.3 0.7-0.7s-0.3-0.7-0.7-0.7-0.7 0.3-0.7 0.7 0.3 0.7 0.7 0.7"/>
			<path d="m105.7 53.3c0.4 0 0.8-0.3 0.8-0.8 0-0.4-0.3-0.8-0.8-0.8-0.4 0-0.8 0.3-0.8 0.8 0 0.4 0.3 0.8 0.8 0.8"/>
			<path d="m75.7 58.8c0.1 0 0.3-0.1 0.3-0.3 0-0.1-0.1-0.3-0.3-0.3s-0.3 0.1-0.3 0.3c0 0.1 0.1 0.3 0.3 0.3"/>
			<path d="m81.7 59.1c0.3 0 0.6-0.3 0.6-0.6s-0.3-0.6-0.6-0.6-0.6 0.3-0.6 0.6 0.2 0.6 0.6 0.6"/>
			<path d="m87.7 59.4c0.5 0 0.9-0.4 0.9-0.9s-0.4-0.9-0.9-0.9-0.9 0.4-0.9 0.9 0.4 0.9 0.9 0.9"/>
			<path d="m93.7 59.7c0.6 0 1.2-0.5 1.2-1.2 0-0.6-0.5-1.2-1.2-1.2-0.6 0-1.2 0.5-1.2 1.2 0 0.6 0.5 1.2 1.2 1.2"/>
			<path d="m99.7 59.9c0.7 0 1.3-0.6 1.3-1.4 0-0.7-0.6-1.3-1.4-1.3-0.7 0-1.3 0.6-1.3 1.4 0 0.6 0.6 1.3 1.4 1.3"/>
			<path d="m105.7 60c0.8 0 1.5-0.7 1.5-1.5s-0.7-1.5-1.5-1.5-1.5 0.7-1.5 1.5 0.7 1.5 1.5 1.5"/>
			<path d="m69.6 64.9c0.2 0 0.4-0.2 0.4-0.4s-0.2-0.4-0.4-0.4-0.4 0.2-0.4 0.4c0.1 0.2 0.2 0.4 0.4 0.4"/>
			<path d="m75.7 65.3c0.4 0 0.8-0.4 0.8-0.8s-0.4-0.8-0.8-0.8-0.8 0.4-0.8 0.8 0.3 0.8 0.8 0.8"/>
			<path d="m81.7 65.7c0.7 0 1.2-0.5 1.2-1.2s-0.5-1.2-1.2-1.2-1.2 0.5-1.2 1.2 0.5 1.2 1.2 1.2"/>
			<path d="m87.7 66c0.8 0 1.5-0.7 1.5-1.5s-0.7-1.5-1.5-1.5-1.5 0.7-1.5 1.5c-0.1 0.8 0.6 1.5 1.5 1.5"/>
			<path d="m93.7 66.3c1 0 1.8-0.8 1.8-1.8s-0.8-1.8-1.8-1.8-1.8 0.8-1.8 1.8 0.8 1.8 1.8 1.8"/>
			<path d="m99.7 66.5c1.1 0 2-0.9 2-2s-0.9-2-2-2-2 0.9-2 2 0.9 2 2 2"/>
			<path d="m105.7 66.6c1.2 0 2.1-1 2.1-2.1 0-1.2-1-2.1-2.1-2.1-1.2 0-2.1 1-2.1 2.1-0.1 1.2 0.9 2.1 2.1 2.1"/>
			<path d="m63.7 70.9c0.2 0 0.4-0.2 0.4-0.4s-0.2-0.4-0.4-0.4-0.4 0.2-0.4 0.4 0.2 0.4 0.4 0.4"/>
			<path d="m69.7 71.4c0.5 0 0.9-0.4 0.9-0.9s-0.4-0.9-0.9-0.9-0.9 0.4-0.9 0.9 0.4 0.9 0.9 0.9"/>
			<path d="m75.7 71.8c0.7 0 1.3-0.6 1.3-1.3s-0.6-1.3-1.3-1.3-1.3 0.6-1.3 1.3c-0.1 0.7 0.5 1.3 1.3 1.3"/>
			<path d="m81.7 72.3c1 0 1.8-0.8 1.8-1.8s-0.8-1.8-1.8-1.8-1.8 0.8-1.8 1.8 0.8 1.8 1.8 1.8"/>
			<path d="m87.7 72.6c1.2 0 2.1-1 2.1-2.1 0-1.2-1-2.1-2.1-2.1-1.2 0-2.1 1-2.1 2.1-0.1 1.2 0.9 2.1 2.1 2.1"/>
			<path d="m93.7 72.9c1.3 0 2.4-1.1 2.4-2.4s-1.1-2.4-2.4-2.4-2.4 1.1-2.4 2.4c-0.1 1.3 1 2.4 2.4 2.4"/>
			<path d="m99.7 73.2c1.5 0 2.7-1.2 2.7-2.7s-1.2-2.7-2.7-2.7-2.7 1.2-2.7 2.7 1.2 2.7 2.7 2.7"/>
			<path d="m57.7 76.8c0.1 0 0.3-0.1 0.3-0.3 0-0.1-0.1-0.3-0.3-0.3-0.1 0-0.3 0.1-0.3 0.3 0 0.1 0.1 0.3 0.3 0.3"/>
			<path d="m63.7 77.3c0.4 0 0.8-0.4 0.8-0.8s-0.4-0.8-0.8-0.8-0.8 0.4-0.8 0.8 0.3 0.8 0.8 0.8"/>
			<path d="m69.7 77.8c0.7 0 1.3-0.6 1.3-1.3s-0.6-1.3-1.3-1.3-1.3 0.6-1.3 1.3c-0.1 0.7 0.5 1.3 1.3 1.3"/>
			<path d="m75.7 78.3c1 0 1.8-0.8 1.8-1.8s-0.8-1.8-1.8-1.8-1.8 0.8-1.8 1.8c-0.1 1 0.8 1.8 1.8 1.8"/>
			<path d="m81.7 78.8c1.3 0 2.3-1 2.3-2.3s-1-2.3-2.3-2.3-2.3 1-2.3 2.3 1 2.3 2.3 2.3"/>
			<path d="m87.7 79.2c1.5 0 2.7-1.2 2.7-2.7s-1.2-2.7-2.7-2.7-2.7 1.2-2.7 2.7 1.2 2.7 2.7 2.7"/>
			<path d="m57.7 83.1c0.3 0 0.6-0.3 0.6-0.6s-0.3-0.6-0.6-0.6-0.6 0.3-0.6 0.6 0.2 0.6 0.6 0.6"/>
			<path d="m63.7 83.7c0.7 0 1.2-0.5 1.2-1.2s-0.5-1.2-1.2-1.2-1.2 0.5-1.2 1.2 0.5 1.2 1.2 1.2"/>
			<path d="m69.7 84.3c0.9 0 1.6-0.7 1.6-1.6s-0.7-1.6-1.6-1.6-1.6 0.7-1.6 1.6c0 0.8 0.7 1.6 1.6 1.6"/>
			<path d="m75.7 84.8c1.3 0 2.3-1 2.3-2.3s-1-2.3-2.3-2.3-2.3 1-2.3 2.3 1 2.3 2.3 2.3"/>
			<path d="m51.7 88.8c0.2 0 0.3-0.1 0.3-0.3s-0.1-0.3-0.3-0.3-0.3 0.1-0.3 0.3 0.1 0.3 0.3 0.3"/>
			<path d="m57.7 89.4c0.5 0 0.9-0.4 0.9-0.9s-0.4-0.9-0.9-0.9-0.9 0.4-0.9 0.9 0.4 0.9 0.9 0.9"/>
			<path d="m63.7 90c0.8 0 1.5-0.7 1.5-1.5s-0.7-1.5-1.5-1.5-1.5 0.7-1.5 1.5c-0.1 0.8 0.6 1.5 1.5 1.5"/>
			<path d="m69.7 90.6c1.2 0 2.1-1 2.1-2.1 0-1.2-1-2.1-2.1-2.1-1.2 0-2.1 1-2.1 2.1s0.9 2.1 2.1 2.1"/>
			<path d="m75.7 91.2c1.5 0 2.7-1.2 2.7-2.7s-1.2-2.7-2.7-2.7-2.7 1.2-2.7 2.7 1.2 2.7 2.7 2.7"/>
			<path d="m51.7 95c0.3 0 0.5-0.2 0.5-0.5s-0.2-0.5-0.5-0.5-0.5 0.2-0.5 0.5 0.2 0.5 0.5 0.5"/>
			<path d="m57.7 95.7c0.6 0 1.2-0.5 1.2-1.2 0-0.6-0.5-1.2-1.2-1.2-0.6 0-1.2 0.5-1.2 1.2 0 0.6 0.5 1.2 1.2 1.2"/>
			<path d="m63.7 96.3c1 0 1.8-0.8 1.8-1.8s-0.8-1.8-1.8-1.8-1.8 0.8-1.8 1.8 0.8 1.8 1.8 1.8"/>
			<path d="m63.7 128.7c-1 0-1.8 0.8-1.8 1.8s0.8 1.8 1.8 1.8 1.8-0.8 1.8-1.8-0.8-1.8-1.8-1.8"/>
			<path d="m69.7 96.9c1.4 0 2.4-1.1 2.4-2.4s-1.1-2.4-2.4-2.4-2.4 1.1-2.4 2.4c-0.1 1.3 1 2.4 2.4 2.4"/>
			<path d="m57.7 101.8c0.7 0 1.3-0.6 1.3-1.4s-0.6-1.3-1.4-1.3c-0.7 0-1.3 0.6-1.3 1.4 0 0.7 0.6 1.3 1.4 1.3"/>
			<path d="m63.7 102.5c1.1 0 2-0.9 2-2s-0.9-2-2-2-2 0.9-2 2 0.9 2 2 2"/>
			<path d="m69.7 103.2c1.5 0 2.7-1.2 2.7-2.7s-1.2-2.7-2.7-2.7-2.7 1.2-2.7 2.7 1.2 2.7 2.7 2.7"/>
			<path d="m45.7 106.6c0.1 0 0.1-0.1 0.1-0.1 0-0.1-0.1-0.1-0.1-0.1-0.1 0-0.1 0.1-0.1 0.1-0.1 0.1 0 0.1 0.1 0.1"/>
			<path d="m51.7 107.3c0.4 0 0.8-0.3 0.8-0.8 0-0.4-0.3-0.8-0.8-0.8s-0.8 0.3-0.8 0.8c0 0.4 0.3 0.8 0.8 0.8"/>
			<path d="m57.7 108c0.8 0 1.5-0.7 1.5-1.5s-0.7-1.5-1.5-1.5-1.5 0.7-1.5 1.5 0.7 1.5 1.5 1.5"/>
			<path d="m63.7 108.6c1.2 0 2.1-1 2.1-2.1 0-1.2-1-2.1-2.1-2.1-1.2 0-2.1 1-2.1 2.1-0.1 1.2 0.9 2.1 2.1 2.1"/>
			<path d="m45.7 112.3c-0.1 0-0.2 0.1-0.2 0.2s0.1 0.2 0.2 0.2 0.2-0.1 0.2-0.2c-0.1-0.1-0.1-0.2-0.2-0.2"/>
			<path d="m51.7 111.7c-0.5 0-0.8 0.4-0.8 0.8s0.4 0.8 0.8 0.8 0.8-0.4 0.8-0.8-0.4-0.8-0.8-0.8"/>
			<path d="m57.7 111c-0.8 0-1.5 0.7-1.5 1.5s0.7 1.5 1.5 1.5 1.5-0.7 1.5-1.5-0.7-1.5-1.5-1.5"/>
			<path d="m63.7 110.3c-1.2 0-2.2 1-2.2 2.2s1 2.2 2.2 2.2 2.2-1 2.2-2.2-1-2.2-2.2-2.2"/>
			<path d="m45.7 118.3c-0.1 0-0.1 0.1-0.1 0.1 0 0.1 0.1 0.1 0.1 0.1 0.1 0 0.1-0.1 0.1-0.1s0-0.1-0.1-0.1"/>
			<path d="m51.7 117.7c-0.4 0-0.8 0.3-0.8 0.8 0 0.4 0.3 0.8 0.8 0.8 0.4 0 0.8-0.3 0.8-0.8 0-0.4-0.4-0.8-0.8-0.8"/>
			<path d="m57.7 117z"/>
			<path d="m57.7 117c-0.8 0-1.5 0.7-1.5 1.5s0.7 1.5 1.5 1.5 1.5-0.7 1.5-1.5c-0.1-0.8-0.7-1.5-1.5-1.5"/>
			<path d="m63.7 116.4c-1.2 0-2.1 1-2.1 2.1s1 2.1 2.1 2.1c1.2 0 2.1-1 2.1-2.1 0-1.2-1-2.1-2.1-2.1"/>
			<path d="m51.7 123.8c-0.4 0-0.7 0.3-0.7 0.7s0.3 0.7 0.7 0.7 0.7-0.3 0.7-0.7-0.3-0.7-0.7-0.7"/>
			<path d="m51.7 101.2c0.4 0 0.7-0.3 0.7-0.7s-0.3-0.7-0.7-0.7-0.7 0.3-0.7 0.7 0.3 0.7 0.7 0.7"/>
			<path d="m63.7 122.5c-1.1 0-2 0.9-2 2s0.9 2 2 2 2-0.9 2-2-0.9-2-2-2"/>
			<path d="m51.7 130c-0.3 0-0.5 0.2-0.5 0.5s0.2 0.5 0.5 0.5 0.5-0.2 0.5-0.5-0.2-0.5-0.5-0.5"/>
			<path d="m57.7 129.3c-0.7 0-1.2 0.5-1.2 1.2s0.5 1.2 1.2 1.2c0.6 0 1.2-0.5 1.2-1.2 0-0.6-0.6-1.2-1.2-1.2"/>
			<path d="m69.7 128.1c-1.4 0-2.5 1.1-2.5 2.4 0 1.4 1.1 2.5 2.4 2.5 1.4 0 2.5-1.1 2.5-2.4 0-1.4-1.1-2.5-2.4-2.5"/>
			<path d="m51.7 136.2c-0.2 0-0.3 0.1-0.3 0.3s0.1 0.3 0.3 0.3 0.3-0.1 0.3-0.3-0.2-0.3-0.3-0.3"/>
			<path d="m57.7 135.6c-0.5 0-0.9 0.4-0.9 0.9s0.4 0.9 0.9 0.9 0.9-0.4 0.9-0.9-0.4-0.9-0.9-0.9"/>
			<path d="m63.7 135c-0.9 0-1.5 0.7-1.5 1.5 0 0.9 0.7 1.5 1.5 1.5 0.9 0 1.5-0.7 1.5-1.5 0-0.9-0.7-1.5-1.5-1.5"/>
			<path d="m69.7 134.4c-1.2 0-2.2 1-2.2 2.1 0 1.2 1 2.2 2.1 2.2 1.2 0 2.2-1 2.2-2.1 0-1.3-0.9-2.2-2.1-2.2"/>
			<path d="m57.7 141.9c-0.3 0-0.6 0.3-0.6 0.6s0.3 0.6 0.6 0.6 0.6-0.3 0.6-0.6-0.3-0.6-0.6-0.6"/>
			<path d="m63.7 141.3c-0.7 0-1.2 0.5-1.2 1.2s0.5 1.2 1.2 1.2 1.2-0.5 1.2-1.2-0.5-1.2-1.2-1.2"/>
			<path d="m69.7 140.7c-1 0-1.8 0.8-1.8 1.8s0.8 1.8 1.8 1.8 1.8-0.8 1.8-1.8-0.8-1.8-1.8-1.8"/>
			<path d="m75.7 140.2c-1.3 0-2.3 1-2.3 2.3s1 2.3 2.3 2.3 2.3-1 2.3-2.3-1-2.3-2.3-2.3"/>
			<path d="m57.7 148.2c-0.2 0-0.3 0.1-0.3 0.3s0.1 0.3 0.3 0.3 0.3-0.1 0.3-0.3-0.2-0.3-0.3-0.3"/>
			<path d="m63.7 147.7c-0.5 0-0.8 0.4-0.8 0.8s0.4 0.8 0.8 0.8c0.5 0 0.8-0.4 0.8-0.8 0-0.5-0.4-0.8-0.8-0.8"/>
			<path d="m69.7 147.1c-0.8 0-1.4 0.6-1.4 1.4s0.6 1.4 1.4 1.4 1.4-0.6 1.4-1.4c-0.1-0.7-0.7-1.4-1.4-1.4"/>
			<path d="m75.7 146.6c-1 0-1.9 0.8-1.9 1.9 0 1 0.8 1.9 1.9 1.9 1 0 1.9-0.8 1.9-1.9 0-1-0.9-1.9-1.9-1.9"/>
			<path d="m81.7 146.2c-1.3 0-2.3 1-2.3 2.3s1 2.3 2.3 2.3 2.3-1 2.3-2.3-1-2.3-2.3-2.3"/>
			<path d="m63.7 154.1c-0.2 0-0.4 0.2-0.4 0.4s0.2 0.4 0.4 0.4 0.4-0.2 0.4-0.4-0.2-0.4-0.4-0.4"/>
			<path d="m69.7 153.6c-0.5 0-0.9 0.4-0.9 0.9s0.4 0.9 0.9 0.9 0.9-0.4 0.9-0.9-0.4-0.9-0.9-0.9"/>
			<path d="m75.7 153.1c-0.8 0-1.4 0.6-1.4 1.4s0.6 1.4 1.4 1.4 1.4-0.6 1.4-1.4-0.7-1.4-1.4-1.4"/>
			<path d="m81.7 152.7c-1 0-1.8 0.8-1.8 1.8s0.8 1.8 1.8 1.8 1.8-0.8 1.8-1.8-0.8-1.8-1.8-1.8"/>
			<path d="m87.7 152.3c-1.2 0-2.2 1-2.2 2.2s1 2.2 2.2 2.2 2.2-1 2.2-2.2-1-2.2-2.2-2.2"/>
			<path d="m93.7 152c-1.4 0-2.5 1.1-2.5 2.5s1.1 2.5 2.5 2.5 2.5-1.1 2.5-2.5-1.2-2.5-2.5-2.5"/>
			<path d="m69.7 160.1c-0.2 0-0.4 0.2-0.4 0.4s0.2 0.4 0.4 0.4 0.4-0.2 0.4-0.4-0.2-0.4-0.4-0.4"/>
			<path d="m75.7 159.7c-0.5 0-0.9 0.4-0.9 0.8 0 0.5 0.4 0.9 0.8 0.9 0.5 0 0.9-0.4 0.9-0.8 0-0.6-0.3-0.9-0.8-0.9"/>
			<path d="m81.7 159.3c-0.7 0-1.2 0.6-1.2 1.2 0 0.7 0.6 1.2 1.2 1.2 0.7 0 1.2-0.6 1.2-1.2 0-0.7-0.5-1.2-1.2-1.2"/>
			<path d="m87.7 158.9c-0.9 0-1.6 0.7-1.6 1.6s0.7 1.6 1.6 1.6 1.6-0.7 1.6-1.6-0.7-1.6-1.6-1.6"/>
			<path d="m93.7 158.7c-1 0-1.8 0.8-1.8 1.8s0.8 1.8 1.8 1.8 1.8-0.8 1.8-1.8-0.8-1.9-1.8-1.8v0"/>
			<path d="m99.7 158.5c-1.1 0-2 0.9-2.1 2s0.9 2 2 2.1c1.1 0 2-0.9 2.1-2 0-1.2-0.9-2.1-2-2.1"/>
			<path d="m105.7 158.3c-1.2 0-2.2 1-2.2 2.2s1 2.2 2.2 2.2 2.2-1 2.2-2.2-1-2.2-2.2-2.2"/>
			<path d="m75.7 166.2c-0.2 0-0.3 0.1-0.3 0.3s0.1 0.3 0.3 0.3 0.3-0.1 0.3-0.3-0.2-0.3-0.3-0.3"/>
			<path d="m81.7 165.8c-0.4 0-0.6 0.3-0.6 0.6 0 0.4 0.3 0.6 0.6 0.6 0.4 0 0.6-0.3 0.6-0.6s-0.3-0.6-0.6-0.6"/>
			<path d="m87.7 165.5c-0.5 0-1 0.4-1 1 0 0.5 0.4 1 1 1 0.5 0 1-0.4 1-1-0.1-0.5-0.5-1-1-1"/>
			<path d="m93.7 165.3c-0.7 0-1.2 0.5-1.2 1.2s0.5 1.2 1.2 1.2 1.2-0.5 1.2-1.2-0.5-1.2-1.2-1.2"/>
			<path d="m99.7 165.1c-0.8 0-1.4 0.6-1.4 1.4s0.6 1.4 1.4 1.4 1.4-0.6 1.4-1.4-0.6-1.4-1.4-1.4"/>
			<path d="m105.7 165c-0.8 0-1.5 0.7-1.5 1.5s0.7 1.5 1.5 1.5 1.5-0.7 1.5-1.5-0.7-1.5-1.5-1.5"/>
			<path d="m87.7 172.2c-0.2 0-0.3 0.1-0.3 0.3s0.1 0.3 0.3 0.3 0.3-0.1 0.3-0.3-0.1-0.3-0.3-0.3"/>
			<path d="m93.7 171.9c-0.3 0-0.6 0.3-0.6 0.6s0.3 0.6 0.6 0.6 0.6-0.3 0.6-0.6c-0.1-0.3-0.3-0.6-0.6-0.6"/>
			<path d="m99.7 171.8c-0.4 0-0.7 0.3-0.7 0.7s0.3 0.7 0.7 0.7 0.7-0.3 0.7-0.7-0.3-0.7-0.7-0.7"/>
			<path d="m105.7 171.7c-0.5 0-0.9 0.4-0.9 0.8 0 0.5 0.4 0.9 0.8 0.9 0.5 0 0.9-0.4 0.9-0.8 0-0.6-0.3-0.9-0.8-0.9"/>
			<path d="m105.7 178.3c-0.1 0-0.2 0.1-0.2 0.2s0.1 0.2 0.2 0.2 0.2-0.1 0.2-0.2-0.1-0.2-0.2-0.2"/>
			<path d="m111.9 37.5v8.8c-0.1 0-0.2 0.1-0.2 0.2s0.1 0.2 0.1 0.2v5c-0.4 0-0.8 0.3-0.8 0.8 0 0.4 0.3 0.8 0.8 0.8h0.1v3.7c-0.8 0-1.5 0.7-1.5 1.5s0.7 1.4 1.5 1.5v2.3c-1.2 0-2.1 1-2.1 2.3 0 1.1 1 2.1 2.1 2.1v1c-1.6 0-2.8 1.3-2.8 2.8 0 1.2 0.7 2.2 1.8 2.6-0.8 0.3-1.5 0.8-2 1.6-0.5-0.8-1.2-1.3-2.1-1.6 1.5-0.5 2.2-2.1 1.7-3.5-0.5-1.5-2.1-2.2-3.5-1.7-1.5 0.5-2.2 2.1-1.7 3.5 0.3 0.8 0.9 1.5 1.7 1.7-1 0.3-1.8 0.9-2.2 1.8-0.9-1.6-2.9-2.2-4.5-1.3-0.7 0.4-1.3 1.1-1.6 1.9-0.6-1.6-2.3-2.4-3.9-1.9s-2.4 2.3-1.9 3.9c0.2 0.7 0.7 1.3 1.4 1.7-0.8 0.3-1.4 0.9-1.8 1.7-0.9-1.5-2.9-2-4.5-1.1-0.9 0.5-1.4 1.4-1.5 2.4-0.2-1.5-1.6-2.6-3.1-2.4s-2.6 1.6-2.4 3.1c0.2 1.3 1.2 2.3 2.4 2.4-1.8 0.2-3.1 1.8-2.9 3.5 0.1 1 0.7 1.9 1.6 2.4-0.7 0.4-1.3 1-1.7 1.8-0.8-1.5-2.7-2-4.1-1.2-1.5 0.8-2 2.7-1.2 4.1 0.4 0.7 0.9 1.2 1.6 1.4-1.7 0.6-2.7 2.4-2.1 4.2 0.3 0.8 0.8 1.5 1.6 1.9-0.9 0.4-1.5 1.2-1.8 2.2-0.5-1.5-2.1-2.2-3.5-1.7-1.5 0.5-2.2 2.1-1.7 3.5 0.5 1.5 2.1 2.2 3.5 1.7 0.8-0.3 1.5-0.9 1.7-1.7 0.2 0.9 0.8 1.6 1.6 2.1-0.7 0.4-1.3 1.1-1.6 2-0.6-1.5-2.2-2.2-3.7-1.6s-2.2 2.2-1.6 3.7 2.2 2.2 3.7 1.6c0.7-0.3 1.3-0.9 1.6-1.6 0.3 0.8 0.8 1.5 1.6 2-0.8 0.5-1.3 1.2-1.5 2-0.5-1.5-2.1-2.2-3.6-1.7s-2.2 2.1-1.7 3.6 2.1 2.2 3.6 1.7c0.8-0.3 1.4-0.9 1.7-1.7 0.3 0.9 0.9 1.7 1.7 2.2-1 0.6-1.7 1.7-1.7 2.9 0-1.5-1.3-2.7-2.7-2.6-1.5 0-2.7 1.3-2.6 2.7s1.3 2.7 2.7 2.6c1.4 0 2.6-1.2 2.6-2.6 0 1.4 0.9 2.6 2.2 3.1-1.6 0.6-2.4 2.4-1.8 3.9 0.6 1.6 2.4 2.4 3.9 1.8 0.7-0.3 1.2-0.7 1.6-1.4 0.3 0.7 0.9 1.3 1.6 1.7-0.9 0.6-1.5 1.6-1.5 2.7 0-1.5-1.3-2.7-2.8-2.7s-2.7 1.3-2.7 2.8 1.3 2.7 2.8 2.7 2.6-1.2 2.7-2.7c0 1.6 1.2 2.9 2.7 3.2-1.5 0.3-2.5 1.8-2.2 3.3s1.8 2.5 3.3 2.2c1.1-0.2 2-1.1 2.2-2.2 0.3 1.4 1.4 2.5 2.9 2.7-1.5 0.2-2.6 1.6-2.4 3.1s1.6 2.6 3.1 2.4 2.6-1.6 2.4-3.1c-0.2-1.2-1.1-2.2-2.4-2.4 1-0.1 1.9-0.7 2.4-1.5 0.4 0.7 1 1.2 1.7 1.6-1.5 0.9-2 2.8-1.1 4.2 0.9 1.5 2.8 2 4.2 1.1 0.6-0.3 1-0.9 1.3-1.5 0.4 1.2 1.5 2 2.7 2.1-1.5 0.2-2.5 1.6-2.2 3.1 0.2 1.5 1.6 2.5 3.1 2.2 1.5-0.2 2.5-1.6 2.2-3.1-0.2-1.1-1.1-2-2.2-2.2 1-0.1 1.9-0.7 2.5-1.6 0.4 0.8 1.2 1.4 2 1.7-1.5 0.6-2.2 2.3-1.6 3.7 0.6 1.5 2.3 2.2 3.7 1.6 1.5-0.6 2.2-2.3 1.6-3.7-0.3-0.7-0.9-1.3-1.6-1.6 0.8-0.2 1.4-0.8 1.9-1.4 0.4 0.7 1.1 1.2 1.8 1.5-1.5 0.7-2.1 2.4-1.4 3.9 0.5 1 1.5 1.7 2.6 1.7v0.9c-1.2 0-2.3 0.9-2.3 2.2 0 1.2 0.9 2.3 2.2 2.3h0.1v2.2c-0.9 0-1.6 0.7-1.6 1.5 0 0.9 0.7 1.6 1.5 1.6h0.1v3.6c-0.5 0-0.8 0.4-0.8 0.9 0 0.4 0.4 0.8 0.8 0.8v4.9c-0.1 0-0.2 0.1-0.2 0.2s0.1 0.2 0.2 0.2v8.8c41.4 0.3 75.3-33 75.6-74.4s-33-75.3-74.4-75.6c-0.2-0.2-0.6-0.2-1-0.2m-27.3 45.3c0.1 0.9 0.5 1.7 1.2 2.2l-1.5 1.5c-0.5-0.7-1.3-1.1-2.2-1.2 1.4-0.2 2.4-1.2 2.5-2.5m0 59.1c-0.2-1.1-1.1-1.9-2.2-2.2 0.8-0.1 1.5-0.6 2-1.2l1.4 1.4c-0.6 0.5-1 1.2-1.2 2"/>
			<path d="m57.7 123.1c-0.7 0-1.4 0.6-1.4 1.4 0 0.7 0.6 1.4 1.4 1.4 0.7 0 1.4-0.6 1.4-1.4-0.1-0.7-0.7-1.4-1.4-1.4"/>
		</g>
	</g>
</switch>

</svg>