<svg xmlns="http://www.w3.org/2000/svg" xmlns:xlink="http://www.w3.org/1999/xlink" version="1.1" viewBox="2.82 0 169.18 30">
<defs>
<radialGradient id="radial0" gradientUnits="userSpaceOnUse" cx="74.9753" cy="74.9753" fx="74.9753" fy="74.9753" r="60.9175" gradientTransform="matrix(0.199768,0,0,0.2,0,0)">
<stop offset="0" style="stop-color:rgb(0%,0%,0%);stop-opacity:1;"/>
<stop offset="0.5" style="stop-color:rgb(0%,0%,0%);stop-opacity:1;"/>
<stop offset="1" style="stop-color:rgb(0%,0%,0%);stop-opacity:0;"/>
</radialGradient>
</defs>
<g id="surface1">
<path style=" stroke:none;fill-rule:nonzero;fill:rgb(0%,0%,0%);fill-opacity:1;" d="M 48.0625 18.601562 C 48.125 19.738281 48.664062 20.800781 49.542969 21.539062 C 50.441406 22.28125 51.601562 22.640625 53.039062 22.640625 C 54.296875 22.640625 55.316406 22.378906 56.074219 21.820312 C 56.832031 21.320312 57.273438 20.460938 57.234375 19.558594 C 57.273438 18.941406 57.035156 18.359375 56.59375 17.921875 C 56.09375 17.480469 55.515625 17.160156 54.875 17 C 53.878906 16.71875 52.839844 16.5 51.820312 16.320312 C 50.640625 16.121094 49.503906 15.820312 48.382812 15.398438 C 47.464844 15.039062 46.664062 14.441406 46.066406 13.640625 C 45.46875 12.859375 45.167969 11.820312 45.167969 10.539062 C 45.148438 9.421875 45.46875 8.320312 46.085938 7.378906 C 46.726562 6.441406 47.625 5.679688 48.683594 5.21875 C 51.160156 4.179688 53.976562 4.199219 56.433594 5.28125 C 57.53125 5.78125 58.472656 6.558594 59.171875 7.539062 C 59.851562 8.519531 60.210938 9.660156 60.25 10.839844 L 56.914062 10.839844 C 56.832031 9.839844 56.316406 8.898438 55.535156 8.28125 C 54.738281 7.640625 53.71875 7.300781 52.480469 7.300781 C 51.28125 7.300781 50.320312 7.558594 49.601562 8.078125 C 48.902344 8.578125 48.484375 9.398438 48.523438 10.28125 C 48.503906 10.878906 48.722656 11.460938 49.164062 11.878906 C 49.640625 12.300781 50.222656 12.601562 50.859375 12.761719 C 51.558594 12.960938 52.578125 13.179688 53.898438 13.398438 C 55.074219 13.601562 56.234375 13.898438 57.332031 14.339844 C 58.253906 14.699219 59.070312 15.300781 59.691406 16.078125 C 60.289062 16.839844 60.609375 17.859375 60.609375 19.121094 C 60.628906 20.28125 60.289062 21.421875 59.628906 22.378906 C 58.953125 23.359375 58.011719 24.140625 56.933594 24.640625 C 55.695312 25.199219 54.355469 25.480469 53 25.441406 C 51.519531 25.480469 50.042969 25.160156 48.703125 24.558594 C 47.523438 24.019531 46.527344 23.179688 45.808594 22.101562 C 45.109375 21.019531 44.726562 19.78125 44.726562 18.5 Z M 48.0625 18.601562 "/>
<path style=" stroke:none;fill-rule:nonzero;fill:rgb(0%,0%,0%);fill-opacity:1;" d="M 63.546875 13.738281 C 64.125 12.601562 65.023438 11.660156 66.144531 11.039062 C 67.300781 10.378906 68.621094 10.058594 69.957031 10.078125 C 71.296875 10.058594 72.617188 10.359375 73.792969 10.960938 C 74.894531 11.539062 75.792969 12.398438 76.410156 13.460938 C 77.070312 14.621094 77.410156 15.921875 77.390625 17.261719 C 77.390625 17.660156 77.351562 18.058594 77.308594 18.460938 L 65.964844 18.460938 L 65.964844 18.640625 C 66.042969 19.960938 66.460938 21 67.203125 21.761719 C 67.941406 22.519531 68.941406 22.898438 70.179688 22.898438 C 71.058594 22.941406 71.917969 22.679688 72.65625 22.199219 C 73.335938 21.738281 73.792969 21.039062 73.972656 20.238281 L 77.148438 20.238281 C 76.910156 21.71875 76.113281 23.078125 74.933594 24.019531 C 73.734375 25 72.214844 25.5 70.417969 25.5 C 69 25.539062 67.582031 25.199219 66.324219 24.539062 C 65.183594 23.921875 64.246094 22.980469 63.625 21.839844 C 62.964844 20.601562 62.648438 19.199219 62.667969 17.800781 C 62.585938 16.398438 62.90625 15 63.546875 13.738281 M 74.152344 16.140625 C 74.074219 15.140625 73.59375 14.21875 72.855469 13.558594 C 72.078125 12.921875 71.078125 12.601562 70.078125 12.640625 C 69.101562 12.621094 68.140625 12.960938 67.382812 13.601562 C 66.621094 14.238281 66.164062 15.160156 66.082031 16.140625 Z M 74.152344 16.140625 "/>
<path style=" stroke:none;fill-rule:nonzero;fill:rgb(0%,0%,0%);fill-opacity:1;" d="M 88.21875 10.238281 L 88.21875 13.21875 L 86.800781 13.21875 C 85.480469 13.21875 84.542969 13.640625 83.941406 14.5 C 83.363281 15.359375 83.0625 16.441406 83.0625 17.761719 L 83.0625 25.320312 L 79.886719 25.320312 L 79.886719 10.238281 L 82.703125 10.238281 L 83.0625 12.5 C 83.484375 11.820312 84.042969 11.238281 84.742188 10.839844 C 85.421875 10.441406 86.339844 10.238281 87.5 10.238281 Z M 88.21875 10.238281 "/>
<path style=" stroke:none;fill-rule:nonzero;fill:rgb(0%,0%,0%);fill-opacity:1;" d="M 89.214844 10.238281 L 92.632812 10.238281 L 96.789062 21.898438 L 100.882812 10.238281 L 104.238281 10.238281 L 98.683594 25.320312 L 94.808594 25.320312 Z M 89.214844 10.238281 "/>
<path style=" stroke:none;fill-rule:nonzero;fill:rgb(0%,0%,0%);fill-opacity:1;" d="M 105.636719 13.738281 C 106.214844 12.601562 107.117188 11.660156 108.234375 11.039062 C 109.394531 10.378906 110.710938 10.058594 112.050781 10.078125 C 113.386719 10.058594 114.707031 10.359375 115.886719 10.960938 C 116.984375 11.539062 117.882812 12.398438 118.503906 13.460938 C 119.160156 14.621094 119.5 15.921875 119.480469 17.261719 C 119.480469 17.660156 119.441406 18.058594 119.402344 18.460938 L 108.054688 18.460938 L 108.054688 18.640625 C 108.132812 19.960938 108.554688 21 109.292969 21.761719 C 110.03125 22.519531 111.03125 22.898438 112.269531 22.898438 C 113.148438 22.941406 114.007812 22.679688 114.746094 22.199219 C 115.425781 21.738281 115.886719 21.039062 116.066406 20.238281 L 119.242188 20.238281 C 119 21.71875 118.203125 23.078125 117.023438 24.019531 C 115.824219 25 114.308594 25.5 112.507812 25.5 C 111.089844 25.539062 109.671875 25.199219 108.414062 24.539062 C 107.273438 23.921875 106.335938 22.980469 105.71875 21.839844 C 105.058594 20.601562 104.738281 19.199219 104.757812 17.800781 C 104.699219 16.398438 104.996094 15 105.636719 13.738281 M 116.246094 16.140625 C 116.164062 15.140625 115.683594 14.21875 114.945312 13.558594 C 114.167969 12.921875 113.167969 12.601562 112.167969 12.640625 C 111.191406 12.621094 110.230469 12.960938 109.472656 13.601562 C 108.714844 14.238281 108.253906 15.160156 108.175781 16.140625 Z M 116.246094 16.140625 "/>
<path style=" stroke:none;fill-rule:nonzero;fill:rgb(0%,0%,0%);fill-opacity:1;" d="M 133.722656 11 C 134.804688 11.621094 135.683594 12.539062 136.261719 13.660156 C 136.902344 14.941406 137.199219 16.359375 137.179688 17.78125 C 137.199219 19.179688 136.902344 20.558594 136.261719 21.800781 C 135.683594 22.921875 134.824219 23.878906 133.722656 24.519531 C 132.605469 25.179688 131.347656 25.519531 130.046875 25.5 C 129.050781 25.519531 128.050781 25.300781 127.132812 24.859375 C 126.332031 24.460938 125.652344 23.859375 125.132812 23.140625 L 124.753906 25.320312 L 122 25.320312 L 122 4.699219 L 125.175781 4.699219 L 125.175781 12.480469 C 126.375 10.878906 127.992188 10.058594 130.046875 10.058594 C 131.328125 10.039062 132.605469 10.359375 133.722656 11 M 132.707031 21.421875 C 133.523438 20.480469 133.925781 19.28125 133.925781 17.78125 C 133.925781 16.300781 133.523438 15.101562 132.707031 14.179688 C 131.085938 12.421875 128.332031 12.300781 126.574219 13.941406 C 126.492188 14.019531 126.414062 14.101562 126.332031 14.179688 C 125.535156 15.101562 125.132812 16.300781 125.132812 17.78125 C 125.132812 19.28125 125.535156 20.480469 126.332031 21.441406 C 127.113281 22.378906 128.289062 22.898438 129.507812 22.859375 C 130.746094 22.859375 131.90625 22.339844 132.707031 21.421875 "/>
<path style=" stroke:none;fill-rule:nonzero;fill:rgb(0%,0%,0%);fill-opacity:1;" d="M 142.832031 24.539062 C 141.695312 23.921875 140.738281 22.980469 140.136719 21.839844 C 139.476562 20.601562 139.15625 19.199219 139.179688 17.78125 C 139.15625 16.378906 139.476562 15 140.136719 13.761719 C 140.757812 12.601562 141.695312 11.660156 142.832031 11.039062 C 145.351562 9.738281 148.347656 9.738281 150.863281 11.039062 C 152.003906 11.660156 152.941406 12.621094 153.5625 13.761719 C 154.21875 15 154.539062 16.378906 154.519531 17.78125 C 154.539062 19.179688 154.21875 20.578125 153.5625 21.839844 C 152.941406 22.980469 152.003906 23.921875 150.863281 24.539062 C 148.328125 25.820312 145.351562 25.820312 142.832031 24.539062 M 150.066406 21.398438 C 150.882812 20.460938 151.285156 19.261719 151.285156 17.800781 C 151.285156 16.320312 150.882812 15.121094 150.066406 14.199219 C 148.40625 12.421875 145.628906 12.320312 143.851562 13.980469 C 143.773438 14.058594 143.714844 14.121094 143.632812 14.199219 C 142.832031 15.140625 142.433594 16.339844 142.433594 17.800781 C 142.433594 19.28125 142.832031 20.480469 143.632812 21.398438 C 145.292969 23.179688 148.066406 23.28125 149.847656 21.621094 C 149.925781 21.539062 149.984375 21.460938 150.066406 21.398438 "/>
<path style=" stroke:none;fill-rule:nonzero;fill:rgb(0%,0%,0%);fill-opacity:1;" d="M 157.015625 4.699219 L 160.195312 4.699219 L 160.195312 25.320312 L 157.015625 25.320312 Z M 157.015625 4.699219 "/>
<path style=" stroke:none;fill-rule:nonzero;fill:rgb(0%,0%,0%);fill-opacity:1;" d="M 164.808594 13.039062 L 162.191406 13.039062 L 162.191406 10.238281 L 164.808594 10.238281 L 164.808594 6.039062 L 168.023438 6.039062 L 168.023438 10.261719 L 171.640625 10.261719 L 171.640625 13.058594 L 168.023438 13.058594 L 168.023438 20.921875 C 168.023438 21.5 168.144531 21.921875 168.382812 22.179688 C 168.625 22.421875 169.023438 22.539062 169.582031 22.539062 L 172 22.539062 L 172 25.339844 L 168.945312 25.339844 C 167.503906 25.339844 166.464844 25 165.808594 24.339844 C 165.148438 23.679688 164.828125 22.640625 164.828125 21.238281 Z M 164.808594 13.039062 "/>
<path style=" stroke:none;fill-rule:nonzero;fill:url(#radial0);" d="M 27.148438 15 C 27.148438 21.726562 21.703125 27.179688 14.984375 27.179688 C 8.261719 27.179688 2.816406 21.726562 2.816406 15 C 2.816406 8.273438 8.261719 2.820312 14.984375 2.820312 C 21.703125 2.820312 27.148438 8.273438 27.148438 15 Z M 27.148438 15 "/>
<path style=" stroke:none;fill-rule:nonzero;fill:rgb(0%,0%,0%);fill-opacity:1;" d="M 14.984375 0 C 23.253906 0 29.964844 6.71875 29.964844 15 C 29.964844 23.28125 23.253906 30 14.984375 30 Z M 14.984375 0 "/>
</g>
</svg>