<?xml version="1.0" encoding="UTF-8"?>
<svg width="230px" height="376px" viewBox="0 0 230 376" version="1.1" xmlns="http://www.w3.org/2000/svg" xmlns:xlink="http://www.w3.org/1999/xlink">
    <!-- Generator: Sketch 53.1 (72631) - https://sketchapp.com -->
    <title>Servebolt_Pictoral_main</title>
    <desc>Created with Sketch.</desc>
    <g id="Page-1" stroke="none" stroke-width="1" fill="none" fill-rule="evenodd">
        <g id="Servebolt_Pictoral_main" fill="#FFFFFF" fill-rule="nonzero">
            <path d="M187.76,130.54 C217.098843,167.439724 214.08723,220.478538 180.76,253.82 L71.18,363.4 C55.1250823,379.465963 29.0859634,379.474918 13.02,363.42 C-3.04596337,347.365082 -3.05491768,321.325963 13,305.26 L187.76,130.54 Z" id="Path"></path>
            <path d="M217.26,13 C224.972586,20.7083875 229.305825,31.1657247 229.305825,42.07 C229.305825,52.9742753 224.972586,63.4316125 217.26,71.14 L42.54,245.9 C13.199772,208.99706 16.2113363,155.954807 49.54,122.61 L159.12,13 C166.829689,5.28986547 177.286538,0.958319525 188.19,0.958319525 C199.093462,0.958319525 209.550311,5.28986547 217.26,13 Z" id="Path"></path>
        </g>
    </g>
</svg>